<svg width="32" height="28" viewBox="0 0 32 28" fill="none" xmlns="http://www.w3.org/2000/svg">
<path d="M17.0615 19.0651H25.5921C25.912 19.0651 26.1253 18.8519 26.1253 18.532V13.7335C26.1253 13.4136 25.912 13.2003 25.5921 13.2003H17.0615C16.7416 13.2003 16.5283 13.4136 16.5283 13.7335V18.532C16.5283 18.8518 16.7416 19.0651 17.0615 19.0651ZM17.5946 14.2666H25.059V17.9988H17.5946V14.2666Z" fill="#67CC8C"/>
<path d="M2.66596 12.1339H6.93131C7.25121 12.1339 7.46446 11.9207 7.46446 11.6008C7.46446 11.2809 7.25121 11.0676 6.93131 11.0676H2.66596C2.34606 11.0676 2.13281 11.2809 2.13281 11.6008C2.13281 11.9207 2.34606 12.1339 2.66596 12.1339Z" fill="#67CC8C"/>
<path d="M9.06342 12.1339H13.3288C13.6487 12.1339 13.8619 11.9207 13.8619 11.6008C13.8619 11.2809 13.6487 11.0676 13.3288 11.0676H9.06342C8.74352 11.0676 8.53027 11.2809 8.53027 11.6008C8.53027 11.9207 8.74352 12.1339 9.06342 12.1339Z" fill="#67CC8C"/>
<path d="M2.66596 14.2666H9.59711C9.91701 14.2666 10.1303 14.0534 10.1303 13.7335C10.1303 13.4136 9.91701 13.2003 9.59711 13.2003H2.66596C2.34606 13.2003 2.13281 13.4136 2.13281 13.7335C2.13281 14.0534 2.34606 14.2666 2.66596 14.2666Z" fill="#67CC8C"/>
<path d="M13.3289 13.2003H11.7294C11.4095 13.2003 11.1963 13.4136 11.1963 13.7335C11.1963 14.0534 11.4095 14.2666 11.7294 14.2666H13.3289C13.6488 14.2666 13.8621 14.0534 13.8621 13.7335C13.8621 13.4136 13.6488 13.2003 13.3289 13.2003Z" fill="#67CC8C"/>
<path d="M31.5102 6.58905C31.137 6.1092 30.6571 5.84259 30.0706 5.7893L28.791 5.63422V4.13644V3.07015C28.791 1.8972 27.8313 0.9375 26.6584 0.9375H2.13265C0.9597 0.937438 0 1.89714 0 3.07015V4.1365V8.40185V20.1315C0 21.0945 0.64711 21.9133 1.52784 22.1757C1.50097 23.2543 2.31703 24.1906 3.41231 24.2902L28.0446 27.0626C28.0979 27.0626 28.2046 27.0626 28.2579 27.0626C29.3242 27.0626 30.2839 26.2629 30.3905 25.2499L31.99 8.13525C32.0433 7.60204 31.8834 7.01554 31.5102 6.58905ZM1.06635 4.66965H27.7247V6.0559V7.86865H1.06635V4.66965ZM2.13265 2.00379H26.6583C27.2448 2.00379 27.7247 2.48364 27.7247 3.07015V3.60329H1.06635V3.07015C1.06635 2.48364 1.5462 2.00379 2.13265 2.00379ZM1.06635 20.1314V8.93494H27.7247V20.1314C27.7247 20.7179 27.2449 21.1978 26.6584 21.1978H2.186H2.13271C1.5462 21.1978 1.06635 20.7179 1.06635 20.1314ZM30.9237 7.92194L29.3242 25.0366C29.2709 25.6231 28.7376 26.0496 28.1512 25.9963L3.5722 23.2238C3.03905 23.1706 2.66579 22.744 2.6125 22.2641H26.6583C27.8312 22.2641 28.7909 21.3044 28.7909 20.1315V8.40179V6.64234L30.0172 6.749C30.2839 6.749 30.5504 6.90895 30.7103 7.12219C30.8704 7.33544 30.977 7.65534 30.9237 7.92194Z" fill="#010101"/>
</svg>
