<svg width="24" height="24" viewBox="0 0 24 24" fill="none" xmlns="http://www.w3.org/2000/svg">
<path d="M10 23C11.1046 23 12 22.1046 12 21C12 19.8954 11.1046 19 10 19C8.89543 19 8 19.8954 8 21C8 22.1046 8.89543 23 10 23Z" stroke="white" stroke-width="2" stroke-linecap="round" stroke-linejoin="round"/>
<path d="M19 23C20.1046 23 21 22.1046 21 21C21 19.8954 20.1046 19 19 19C17.8954 19 17 19.8954 17 21C17 22.1046 17.8954 23 19 23Z" stroke="white" stroke-width="2" stroke-linecap="round" stroke-linejoin="round"/>
<path d="M1 1H5L7.68 14.39C7.77144 14.8504 8.02191 15.264 8.38755 15.5583C8.75318 15.8526 9.2107 16.009 9.68 16H19.4C19.8693 16.009 20.3268 15.8526 20.6925 15.5583C21.0581 15.264 21.3086 14.8504 21.4 14.39L23 6H6" stroke="white" stroke-width="2" stroke-linecap="round" stroke-linejoin="round"/>
</svg>
