<svg width="48" height="48" viewBox="0 0 48 48" fill="none" xmlns="http://www.w3.org/2000/svg">
<path d="M12 45C13.104 45 14 44.104 14 43C14 41.896 13.104 41.0001 12 41.0001C10.896 41.0001 10 41.896 10 43C10 44.104 10.896 45 12 45Z" fill="#010101"/>
<path d="M19.04 14H19.02C18.468 14 18.03 14.448 18.03 15C18.03 15.552 18.488 16 19.04 16C19.592 16 20.04 15.552 20.04 15C20.04 14.448 19.592 14 19.04 14Z" fill="#010101"/>
<path d="M14 14H9.99994C9.44803 14 9 14.448 9 15C9 15.552 9.44803 16 10 16H14.0001C14.5521 16 15.0001 15.552 15.0001 15C15.0001 14.448 14.552 14 14 14Z" fill="#010101"/>
<path d="M28 43C28 44.104 28.896 45 30 45C31.104 45 32 44.104 32 43C32 41.896 31.104 41.0001 30 41.0001C28.896 41.0001 28 41.896 28 43Z" fill="#010101"/>
<path d="M43 0H17C14.244 0 12 2.244 12 4.99997V6.99994C12 7.55194 12.448 7.99997 13 7.99997C13.552 7.99997 14.0001 7.55194 14.0001 6.99994V4.99997C14.0001 3.34594 15.346 1.99997 17.0001 1.99997H43C44.6541 1.99997 46 3.34594 46 4.99997V42.9999C46 44.654 44.6541 45.9999 43 45.9999H26C25.448 45.9999 24.9999 46.448 24.9999 47C24.9999 47.552 25.448 48 26 48H42.9999C45.756 48 48 45.756 48 43V4.99997C48 2.244 45.756 0 43 0Z" fill="#010101"/>
<path d="M19 10H4.99997C2.244 10 0 12.244 0 15V43C0 45.756 2.244 48 4.99997 48H18.9999C21.756 48 24 45.756 24 43V15C24 12.244 21.756 10 19 10ZM22 43C22 44.6541 20.6541 46 19 46H4.99997C3.34594 46 1.99997 44.6541 1.99997 43V40H21.9999V43H22ZM22 38H1.99997V15C1.99997 13.346 3.34594 12 4.99997 12H18.9999C20.654 12 21.9999 13.346 21.9999 15V38H22Z" fill="#010101"/>
<path d="M44 39V4.99997C44 4.44797 43.5519 3.99994 42.9999 3.99994H17C16.448 3.99994 15.9999 4.44797 15.9999 4.99997V6.99994C15.9999 7.55194 16.448 7.99997 17 7.99997C17.552 7.99997 18 7.55203 18 7.00003V6H42V38H27C26.448 38 26 38.448 26 39C26 39.552 26.448 40 27 40H43C43.552 40 44 39.552 44 39Z" fill="#010101"/>
</svg>
