<svg width="48" height="48" viewBox="0 0 48 48" fill="none" xmlns="http://www.w3.org/2000/svg">
<path d="M37.6875 15.5625C37.17 15.5625 36.75 15.9825 36.75 16.5C36.75 17.0175 37.17 17.4375 37.6875 17.4375C38.205 17.4375 38.625 17.0175 38.625 16.5C38.625 15.9825 38.205 15.5625 37.6875 15.5625Z" fill="#010101"/>
<path d="M45.1875 11.8125H34.8919L31.9194 5.86753C31.4397 4.90838 30.4758 4.3125 29.4038 4.3125H18.5963C17.524 4.3125 16.5601 4.90838 16.0806 5.86763L13.1081 11.8125H11.25V10.875C11.25 9.32419 9.98831 8.0625 8.4375 8.0625H6.5625C5.01169 8.0625 3.75 9.32419 3.75 10.875V11.8125H2.8125C1.26169 11.8125 0 13.0742 0 14.625C0 17.1727 0 39.884 0 40.875C0 42.4258 1.26169 43.6875 2.8125 43.6875H45.1875C46.7383 43.6875 48 42.4258 48 40.875C48 38.3273 48 15.616 48 14.625C48 13.0742 46.7383 11.8125 45.1875 11.8125ZM17.7577 6.70612C17.9176 6.38625 18.2389 6.1875 18.5963 6.1875H29.4038C29.7611 6.1875 30.0825 6.38625 30.2424 6.70612L32.7956 11.8125H15.2044L17.7577 6.70612ZM5.625 10.875C5.625 10.3581 6.04556 9.9375 6.5625 9.9375H8.4375C8.95444 9.9375 9.375 10.3581 9.375 10.875V11.8125H5.625V10.875ZM1.875 21.1781H13.7298C12.4838 23.1245 11.8125 25.4055 11.8125 27.75C11.8125 30.0947 12.4839 32.3665 13.7297 34.3125H1.875V21.1781ZM24 17.4375C29.6375 17.4375 34.3125 22.0049 34.3125 27.75C34.3125 33.4886 29.644 38.0625 24 38.0625C18.3509 38.0625 13.6875 33.4836 13.6875 27.75C13.6875 22.012 18.3553 17.4375 24 17.4375ZM46.125 40.875C46.125 41.3919 45.7044 41.8125 45.1875 41.8125H2.8125C2.29556 41.8125 1.875 41.3919 1.875 40.875V36.1875H15.2087C17.4995 38.5755 20.6789 39.9375 24 39.9375C27.3217 39.9375 30.5014 38.5751 32.7914 36.1875H46.125V40.875ZM46.125 34.3125H34.2702C35.5162 32.3662 36.1875 30.0946 36.1875 27.75C36.1875 25.4054 35.5162 23.1338 34.2702 21.1875H46.125V34.3125ZM46.125 19.3125H32.7913C30.5006 16.9245 27.3212 15.5625 24 15.5625C20.6784 15.5625 17.4987 16.9249 15.2086 19.3125H1.875V14.625C1.875 14.1081 2.29556 13.6875 2.8125 13.6875C3.66384 13.6875 43.8696 13.6875 45.1875 13.6875C45.7044 13.6875 46.125 14.1081 46.125 14.625V19.3125Z" fill="#010101"/>
<path d="M26.8125 8.0625H21.1875C20.6697 8.0625 20.25 8.48222 20.25 9C20.25 9.51778 20.6697 9.9375 21.1875 9.9375H26.8125C27.3302 9.9375 27.75 9.51778 27.75 9C27.75 8.48222 27.3302 8.0625 26.8125 8.0625Z" fill="white"/>
<path d="M24 19.3125C19.3476 19.3125 15.5625 23.0976 15.5625 27.75C15.5625 32.4024 19.3476 36.1875 24 36.1875C28.6524 36.1875 32.4375 32.4024 32.4375 27.75C32.4375 23.0976 28.6524 19.3125 24 19.3125ZM24 34.3125C20.3814 34.3125 17.4375 31.3686 17.4375 27.75C17.4375 24.1314 20.3814 21.1875 24 21.1875C27.6186 21.1875 30.5625 24.1314 30.5625 27.75C30.5625 31.3686 27.6186 34.3125 24 34.3125Z" fill="#010101"/>
<path d="M24 23.0625C21.4153 23.0625 19.3125 25.1653 19.3125 27.75C19.3125 28.2678 19.7322 28.6875 20.25 28.6875C20.7678 28.6875 21.1875 28.2678 21.1875 27.75C21.1875 26.1992 22.4492 24.9375 24 24.9375C24.5177 24.9375 24.9375 24.5178 24.9375 24C24.9375 23.4822 24.5177 23.0625 24 23.0625Z" fill="#010101"/>
<path d="M43.3125 15.5625H41.4375C40.9198 15.5625 40.5 15.9822 40.5 16.5C40.5 17.0178 40.9198 17.4375 41.4375 17.4375H43.3125C43.8302 17.4375 44.25 17.0178 44.25 16.5C44.25 15.9822 43.8302 15.5625 43.3125 15.5625Z" fill="white"/>
</svg>
