<svg width="48" height="48" viewBox="0 0 48 48" fill="none" xmlns="http://www.w3.org/2000/svg">
<path d="M19 37.9999C17.49 37.9999 16.04 37.8199 14.688 37.4659C14.152 37.3279 13.832 36.7799 13.974 36.2479C14.112 35.7099 14.66 35.3799 15.192 35.5339C16.378 35.8419 17.66 35.9999 19 35.9999C27.822 35.9999 35 28.8219 35 19.9999C35 18.7919 34.868 17.6119 34.606 16.4859C34.48 15.9479 34.816 15.4099 35.354 15.2839C35.9 15.1619 36.43 15.4959 36.556 16.0319C36.85 17.3059 37 18.6399 37 19.9999C37 29.9259 28.926 37.9999 19 37.9999Z" fill="#010101"/>
<path d="M2.058 22.5C1.544 22.5 1.106 22.104 1.064 21.582C1.022 21.054 1 20.528 1 20C1 10.074 9.074 1.99998 19 1.99998C19.528 1.99998 20.054 2.02198 20.582 2.06398C21.132 2.10798 21.54 2.59198 21.496 3.14198C21.452 3.69198 20.972 4.09999 20.418 4.05599C19.946 4.01799 19.472 3.99998 19 3.99998C10.178 3.99998 3 11.178 3 20C3 20.472 3.018 20.946 3.056 21.418C3.1 21.968 2.692 22.452 2.142 22.496C2.116 22.498 2.086 22.5 2.058 22.5Z" fill="#010101"/>
<path d="M32 48H31C24.936 48 20 43.064 20 37C20 36.448 20.448 36 21 36C21.552 36 22 36.448 22 37C22 41.962 26.038 46 31 46H32C36.962 46 41 41.962 41 37C41 36.448 41.448 36 42 36C42.552 36 43 36.448 43 37C43 43.064 38.064 48 32 48Z" fill="#010101"/>
<path d="M43 38H41C38.242 38 36 35.758 36 33V31C36 30.448 36.448 30 37 30H47C47.552 30 48 30.448 48 31V33C48 35.758 45.758 38 43 38ZM38 32V33C38 34.654 39.346 36 41 36H43C44.654 36 46 34.654 46 33V32H38Z" fill="#010101"/>
<path d="M39 32C38.448 32 38 31.552 38 31V27C38 26.448 38.448 26 39 26C39.552 26 40 26.448 40 27V31C40 31.552 39.552 32 39 32Z" fill="#010101"/>
<path d="M45 32C44.448 32 44 31.552 44 31V27C44 26.448 44.448 26 45 26C45.552 26 46 26.448 46 27V31C46 31.552 45.552 32 45 32Z" fill="#010101"/>
<path d="M31.578 13.364C30.776 13.364 30.022 13.052 29.454 12.486L25.212 8.244C24.042 7.074 24.042 5.172 25.212 4.002C25.402 3.812 25.504 3.562 25.504 3.294C25.504 3.026 25.4 2.776 25.212 2.586C24.822 2.196 24.822 1.562 25.212 1.172C25.602 0.782001 26.236 0.782001 26.626 1.172C27.796 2.342 27.796 4.244 26.626 5.414C26.236 5.804 26.236 6.438 26.626 6.828L30.868 11.07C31.256 11.458 31.892 11.462 32.284 11.07C33.45 9.902 35.352 9.898 36.526 11.07C36.916 11.458 36.916 12.092 36.526 12.484C36.136 12.874 35.502 12.874 35.112 12.484C34.722 12.098 34.088 12.094 33.698 12.484C33.132 13.05 32.378 13.364 31.578 13.364Z" fill="#010101"/>
<path d="M13.898 37.6979C12.874 37.6979 11.85 37.3079 11.07 36.5279L1.17199 26.6279C-0.386013 25.0699 -0.386013 22.5299 1.17199 20.9719L20.97 1.17395C22.528 -0.384053 25.068 -0.384053 26.626 1.17395L36.526 11.0719C38.086 12.6319 38.086 15.1699 36.526 16.7299L16.728 36.5279C15.95 37.3059 14.924 37.6979 13.898 37.6979ZM23.798 2.00195C23.286 2.00195 22.774 2.19595 22.384 2.58595L2.58599 22.3839C1.80599 23.1639 1.80599 24.4319 2.58599 25.2119L12.484 35.1119C13.268 35.8939 14.534 35.8939 15.314 35.1119L35.112 15.3139C35.892 14.5319 35.892 13.2659 35.112 12.4839L25.212 2.58595C24.822 2.19595 24.31 2.00195 23.798 2.00195Z" fill="#010101"/>
</svg>
