<svg width="48" height="48" viewBox="0 0 48 48" fill="none" xmlns="http://www.w3.org/2000/svg">
<path d="M40.7482 0H7.25184C5.25507 0 3.63062 1.62446 3.63062 3.62122V47.0947C3.63062 47.5947 4.03597 48 4.53592 48H43.4641C43.964 48 44.3694 47.5947 44.3694 47.0947V3.62122C44.3694 1.62446 42.7449 0 40.7482 0ZM5.44123 46.1894V9.05306H36.2405C36.7405 9.05306 37.1458 8.64771 37.1458 8.14775C37.1458 7.6478 36.7405 7.24245 36.2405 7.24245H5.44123V3.62122C5.44123 2.6229 6.25351 1.81061 7.25184 1.81061H40.7482C41.7465 1.81061 42.5588 2.6229 42.5588 3.62122V7.24245H39.8711C39.3712 7.24245 38.9658 7.6478 38.9658 8.14775C38.9658 8.64771 39.3712 9.05306 39.8711 9.05306H42.5588V46.1894H5.44123Z" fill="#010101"/>
<path d="M24 12.6749C15.7429 12.6749 9.02521 19.3924 9.02521 27.6495C9.02521 35.9066 15.7428 42.6242 24 42.6242C32.2571 42.6242 38.9747 35.9066 38.9747 27.6495C38.9747 19.3924 32.2571 12.6749 24 12.6749ZM24 40.8136C16.7412 40.8136 10.8358 34.9081 10.8358 27.6495C10.8358 20.3909 16.7412 14.4855 24 14.4855C29.5118 14.4855 34.2425 17.891 36.2007 22.708H35.3729C34.986 22.708 34.6133 22.7697 34.2636 22.8825C32.4241 18.928 28.4191 16.3338 24 16.3338C17.7604 16.3338 12.6842 21.4099 12.6842 27.6495C12.6842 33.8891 17.7604 38.9653 24 38.9653C28.4192 38.9653 32.4241 36.371 34.2636 32.4165C34.6133 32.5293 34.986 32.591 35.3729 32.591H36.2007C34.2425 37.408 29.5118 40.8136 24 40.8136ZM34.3644 30.4726C34.3472 30.4587 34.3292 30.4455 34.3109 30.433C33.8583 30.1036 33.5624 29.5713 33.5624 28.9698V26.3292C33.5624 25.7279 33.8583 25.1956 34.3109 24.866C34.3292 24.8534 34.3472 24.8402 34.3644 24.8264C34.6528 24.6322 34.9998 24.5186 35.3729 24.5186H36.7869C37.0327 25.5225 37.164 26.5708 37.164 27.6495C37.164 28.7282 37.0327 29.7765 36.7869 30.7804H35.3729C34.9998 30.7804 34.6527 30.6668 34.3644 30.4726ZM32.7211 31.4323C31.2247 34.8783 27.7941 37.1547 24 37.1547C18.7588 37.1547 14.4948 32.8907 14.4948 27.6495C14.4948 22.4084 18.7588 18.1444 24 18.1444C27.7941 18.1444 31.2247 20.4208 32.7211 23.8667C32.1201 24.5134 31.7517 25.3789 31.7517 26.3292V28.9698C31.7517 29.9201 32.1201 30.7856 32.7211 31.4323Z" fill="#010101"/>
<path d="M38.9375 4.53591C38.9375 3.54279 38.1294 2.7347 37.1363 2.7347C36.1432 2.7347 35.3352 3.54279 35.3352 4.53591C35.3352 5.52904 36.1432 6.33713 37.1363 6.33713C38.1294 6.33713 38.9375 5.52904 38.9375 4.53591Z" fill="#010101"/>
<path d="M31.7423 2.7347C30.7492 2.7347 29.9411 3.54279 29.9411 4.53591C29.9411 5.52904 30.7492 6.33713 31.7423 6.33713C32.7354 6.33713 33.5434 5.52904 33.5434 4.53591C33.5434 3.54279 32.7354 2.7347 31.7423 2.7347Z" fill="#010101"/>
<path d="M17.2479 3.63062H9.10013C8.60017 3.63062 8.19482 4.03597 8.19482 4.53592C8.19482 5.03588 8.60017 5.44123 9.10013 5.44123H17.2479C17.7478 5.44123 18.1532 5.03588 18.1532 4.53592C18.1532 4.03597 17.7478 3.63062 17.2479 3.63062Z" fill="#010101"/>
<path d="M22.6043 3.63062H20.8597C20.3598 3.63062 19.9544 4.03597 19.9544 4.53592C19.9544 5.03588 20.3598 5.44123 20.8597 5.44123H22.6043C23.1043 5.44123 23.5097 5.03588 23.5097 4.53592C23.5097 4.03597 23.1043 3.63062 22.6043 3.63062Z" fill="#010101"/>
<path d="M24 19.9173C19.7363 19.9173 16.2676 23.386 16.2676 27.6495C16.2676 28.1495 16.673 28.5548 17.1729 28.5548C17.6729 28.5548 18.0782 28.1495 18.0782 27.6495C18.0782 24.3843 20.7348 21.7279 24 21.7279C24.4999 21.7279 24.9053 21.3226 24.9053 20.8226C24.9053 20.3226 24.4999 19.9173 24 19.9173Z" fill="#010101"/>
</svg>
