<svg width="48" height="48" viewBox="0 0 48 48" fill="none" xmlns="http://www.w3.org/2000/svg">
<g clip-path="url(#clip0)">
<path d="M11.3371 34.3445C11.8618 34.3351 12.2928 33.8854 12.2741 33.3794C12.2554 32.8829 11.8244 32.4706 11.3278 32.4706C10.8031 32.4706 10.3721 32.9016 10.3721 33.4169C10.3721 33.9323 10.8031 34.3539 11.3371 34.3445Z" fill="#010101"/>
<path d="M48 42.3929C47.9157 42.7021 47.8408 43.0207 47.7377 43.3299C46.8851 45.9627 45.0861 47.5743 42.3596 47.9865C39.6331 48.4082 37.0658 47.0871 35.7353 44.726C35.5573 44.4074 35.3606 44.3043 35.0045 44.3043C27.6682 44.3137 20.3319 44.3231 12.9862 44.3137C12.6489 44.3137 12.4615 44.4074 12.2928 44.7072C10.8687 47.237 8.03906 48.5019 5.16262 47.9116C2.47357 47.3588 0.356057 45.007 0.0374936 42.2056C-0.262331 39.5821 1.12436 36.968 3.49484 35.7031C3.62602 35.6282 3.76656 35.5626 3.92584 35.4689C3.71034 34.5788 3.49484 33.7074 3.27935 32.836C3.10132 32.1052 3.33556 31.6836 4.04765 31.5056C5.17199 31.2245 6.31507 31.0558 7.47689 31.2432C7.92662 31.3182 8.22645 31.693 8.25456 32.1146C8.2733 32.5456 7.9641 32.9672 7.505 33.0703C7.29887 33.1171 7.074 33.0984 6.8585 33.0984C6.38065 33.0984 5.89344 33.0984 5.31253 33.0984C5.48118 33.773 5.62172 34.3445 5.76227 34.9536C6.75543 34.8411 7.70176 34.9536 8.62934 35.2628C10.2503 35.8062 11.4964 36.8181 12.3209 38.3266C12.4615 38.5796 12.602 38.6826 12.9018 38.6733C13.4078 38.6451 13.9231 38.6639 14.5696 38.6639C14.2136 37.9893 13.9137 37.399 13.5858 36.8181C13.3797 36.4527 13.3235 36.0685 13.6233 35.7781C13.8482 35.5626 14.2136 35.3846 14.504 35.4033C14.757 35.4127 15.0943 35.6563 15.2255 35.8999C15.6565 36.6869 16.0406 37.5114 16.3967 38.336C16.4997 38.5796 16.5934 38.6733 16.8558 38.6733C21.6342 38.6639 26.4127 38.6639 31.1911 38.6733C31.4254 38.6733 31.5378 38.6077 31.6221 38.3641C32.3904 36.0311 33.7958 34.1759 35.8665 32.836C36.082 32.6955 36.1289 32.555 36.0633 32.2926C34.6391 27.0363 33.2337 21.78 31.8095 16.5237C31.772 16.3738 31.6221 16.2145 31.4909 16.1396C30.9475 15.8585 30.5821 15.4369 30.4135 14.856C30.2542 14.2844 30.0949 13.7129 29.9543 13.1413C29.8138 12.5511 29.8888 12.0076 30.2354 11.4829C30.3291 11.3424 30.3572 11.1082 30.3198 10.9395C30.0106 9.68399 29.6545 8.44721 29.3547 7.1917C29.0174 5.76753 29.8325 4.31526 31.238 3.91237C33.4211 3.28461 35.6135 2.69433 37.8154 2.14153C39.277 1.76675 40.7574 2.71307 41.1415 4.14661C41.5257 5.61762 40.7387 7.08863 39.2676 7.55711C38.1714 7.90378 37.0471 8.1755 35.9415 8.47532C35.8197 8.50343 35.7072 8.54091 35.5479 8.58775C35.6323 8.89695 35.6885 9.20614 35.8009 9.48723C35.8571 9.63714 35.9789 9.80579 36.1195 9.88075C36.6348 10.1431 37.0096 10.5179 37.1689 11.0707C37.3656 11.7265 37.5249 12.3918 37.6936 13.057C37.8247 13.5911 37.6655 14.0595 37.4031 14.528C37.3094 14.6873 37.2626 14.9309 37.3094 15.1089C39.0334 21.602 40.7761 28.0951 42.5001 34.5882C42.5845 34.9161 42.7344 35.0473 43.0717 35.1409C45.7326 35.9186 47.3723 37.6613 47.9157 40.4066C47.9344 40.4816 47.9719 40.5472 48 40.6221C48 41.2124 48 41.8027 48 42.3929ZM36.6629 34.5975C36.5411 34.6725 36.4568 34.71 36.3818 34.7662C34.8265 35.9655 33.7677 37.5114 33.2805 39.4228C33.0182 40.4254 32.8495 40.5659 31.7908 40.5659C23.5737 40.5659 15.366 40.5659 7.14895 40.5659C6.89598 40.5659 6.643 40.5659 6.39939 40.6034C5.94966 40.669 5.62172 41.1 5.64983 41.531C5.67794 41.9807 6.03398 42.3461 6.49309 42.3929C6.61489 42.4023 6.74607 42.4023 6.86787 42.4023C16.0313 42.4023 25.204 42.4023 34.3674 42.4117C34.536 42.4117 34.7047 42.4117 34.864 42.4117C34.8827 42.3086 34.9015 42.2711 34.8921 42.2243C34.7234 40.0412 35.3793 38.1673 36.9909 36.6494C37.0658 36.5745 37.1408 36.4246 37.1127 36.3309C36.9815 35.7593 36.8222 35.1878 36.6629 34.5975ZM33.6553 15.9897C33.7115 16.2145 33.7584 16.3926 33.8052 16.5706C35.7916 23.9725 37.7685 31.3838 39.7549 38.7857C40.0172 39.7601 40.2702 40.7439 40.5513 41.709C40.6918 42.2056 41.0666 42.4398 41.5257 42.4023C41.9286 42.3742 42.3034 42.0556 42.3408 41.6246C42.3596 41.3904 42.2846 41.1374 42.219 40.8938C40.214 33.3701 38.1995 25.8464 36.1851 18.3227C35.9321 17.3857 35.6791 16.4394 35.4168 15.4931C34.7984 15.6711 34.2362 15.8304 33.6553 15.9897ZM10.2222 38.6639C9.2571 37.146 6.98967 36.4527 5.13451 37.0523C3.14817 37.6988 1.78022 39.6852 1.9114 41.709C2.06131 43.967 3.59791 45.6816 5.8747 46.1126C7.46752 46.4125 9.64124 45.5317 10.2034 44.3231C9.03223 44.3231 7.87978 44.3231 6.72733 44.3231C5.66857 44.3231 4.80658 43.9296 4.22567 43.0301C3.63539 42.1119 3.58854 41.1468 4.09449 40.1911C4.61919 39.1979 5.49055 38.7014 6.60552 38.6733C7.78608 38.6451 8.97601 38.6639 10.2222 38.6639ZM37.7592 38.6733C36.5224 40.1162 36.4474 42.4492 37.553 44.0795C38.743 45.8409 40.9542 46.5905 42.9405 45.9159C44.88 45.2507 46.2198 43.3205 46.1168 41.3155C46.0231 39.4978 44.6645 37.5677 43.2309 37.2585C43.5401 38.439 43.8681 39.6008 44.1492 40.772C44.5333 42.3367 43.6526 43.8171 42.1347 44.22C40.6356 44.6135 39.1458 43.7328 38.7055 42.1775C38.3869 41.0344 38.0777 39.8726 37.7592 38.6733ZM33.9551 10.04C33.8146 9.4966 33.6834 8.98127 33.5522 8.47532C33.2899 7.50089 33.5054 7.14485 34.4798 6.8825C35.8571 6.51709 37.2438 6.15168 38.6212 5.76753C39.1833 5.60825 39.4269 5.13977 39.2864 4.61508C39.1646 4.14661 38.668 3.85615 38.1339 3.99669C36.0445 4.5495 33.9551 5.1023 31.8751 5.67384C31.3223 5.82375 31.0881 6.25475 31.2005 6.82629C31.2286 6.9762 31.2661 7.12611 31.3129 7.27602C31.6034 8.35352 31.8938 9.42164 32.1937 10.5085C32.8027 10.3492 33.3742 10.1993 33.9551 10.04ZM35.8384 13.4131C35.6698 12.7947 35.5198 12.2231 35.3606 11.6328C34.1238 11.9701 32.9526 12.2887 31.772 12.6073C31.9501 13.2444 32.1093 13.8066 32.2686 14.3875C33.4773 14.0502 34.6391 13.741 35.8384 13.4131Z" fill="#010101"/>
<path d="M11.3371 34.3445C10.8031 34.3539 10.3721 33.9416 10.3721 33.4169C10.3721 32.9016 10.8031 32.4706 11.3278 32.4706C11.8244 32.4706 12.2554 32.8829 12.2741 33.3795C12.2928 33.8854 11.8618 34.3351 11.3371 34.3445Z" fill="#010101"/>
</g>
<defs>
<clipPath id="clip0">
<rect width="48" height="48" fill="white"/>
</clipPath>
</defs>
</svg>
