<svg width="48" height="48" viewBox="0 0 48 48" fill="none" xmlns="http://www.w3.org/2000/svg">
<g clip-path="url(#clip0)">
<path d="M47.0939 7.29507L47.7259 6.66311C48.092 6.29702 48.092 5.7034 47.7259 5.33722C47.3598 4.97122 46.7662 4.97122 46.4 5.33722L45.768 5.96918L45.1364 5.33759C44.9607 5.16181 44.7222 5.063 44.4735 5.063H43.4424L38.654 0.274591C38.4781 0.0988113 38.2397 0 37.9911 0H3.37694C1.51528 0 0.000671387 1.51451 0.000671387 3.37627V20.9449C0.000671387 22.8066 1.51528 24.3212 3.37694 24.3212H11.5443L6.05207 29.8136C5.41439 30.4512 5.06321 31.2991 5.06321 32.201C5.06321 33.1027 5.41439 33.9506 6.05207 34.5884L18.4749 47.0112C19.1126 47.6489 19.9605 48.0001 20.8623 48.0001C21.7642 48.0001 22.6121 47.6489 23.2497 47.0112L32.554 37.707C32.9202 37.3409 32.9202 36.7473 32.554 36.3811C32.1879 36.0152 31.5943 36.0151 31.2282 36.3811L21.9238 45.6853C21.6404 45.9689 21.2633 46.125 20.8623 46.125C20.4614 46.125 20.0843 45.9689 19.8008 45.6853L7.37787 33.2625C7.09437 32.979 6.93818 32.6019 6.93818 32.201C6.93818 31.7999 7.09437 31.4229 7.37787 31.1394L31.5791 6.93817H44.0853L44.4423 7.29516L42.2745 9.46301C41.9073 9.28695 41.4964 9.18824 41.0627 9.18824C39.5119 9.18824 38.2502 10.4499 38.2502 12.0007C38.2502 13.5515 39.5119 14.8132 41.0627 14.8132C42.6135 14.8132 43.8752 13.5515 43.8752 12.0007C43.8752 11.567 43.7763 11.156 43.6003 10.7889L45.7681 8.62105L46.1251 8.97805V21.4842L37.1942 30.4151C36.8281 30.7812 36.8281 31.3749 37.1942 31.741C37.5603 32.107 38.1539 32.107 38.5201 31.741L47.7256 22.5355C47.9014 22.3597 48.0002 22.1213 48.0002 21.8727V8.58956C48.0002 8.34093 47.9014 8.10253 47.7256 7.92666L47.0939 7.29507ZM16.836 16.8218C16.3189 16.8218 15.8982 16.4012 15.8982 15.8841C15.8982 15.3669 16.3189 14.9462 16.836 14.9462C17.3531 14.9462 17.7738 15.3669 17.7738 15.8841C17.7738 16.4011 17.3531 16.8218 16.836 16.8218ZM31.1908 5.0631C30.9422 5.0631 30.7037 5.16191 30.5279 5.33769L19.6255 16.24C19.6403 16.1233 19.6488 16.0046 19.6488 15.884C19.6488 14.333 18.3871 13.0711 16.8361 13.0711C15.2852 13.0711 14.0233 14.333 14.0233 15.884C14.0233 17.435 15.2851 18.6967 16.8361 18.6967C16.9568 18.6967 17.0754 18.6882 17.1922 18.6734L13.4194 22.4461H3.37694C2.54914 22.4461 1.87565 21.7726 1.87565 20.9448V3.37627C1.87565 2.54847 2.54914 1.87498 3.37694 1.87498H37.6027L40.7908 5.0631H31.1908ZM41.0627 12.938C40.5458 12.938 40.1252 12.5174 40.1252 12.0005C40.1252 11.4836 40.5458 11.063 41.0627 11.063C41.2766 11.063 41.4735 11.1359 41.6315 11.257C41.6563 11.2894 41.6827 11.3211 41.7124 11.3507C41.742 11.3804 41.7737 11.4068 41.8061 11.4316C41.9272 11.5896 42.0001 11.7865 42.0001 12.0004C42.0002 12.5174 41.5796 12.938 41.0627 12.938Z" fill="black"/>
<path d="M31.1808 27.7342C31.4294 27.7342 31.6679 27.6354 31.8437 27.4596L33.965 25.3382C34.3311 24.9721 34.3311 24.3785 33.965 24.0123C33.5989 23.6464 33.0053 23.6464 32.6392 24.0123L31.1808 25.4708L26.5404 20.8305C26.1744 20.4645 25.5807 20.4645 25.2146 20.8305C24.8485 21.1966 24.8485 21.7902 25.2146 22.1564L30.5179 27.4596C30.6938 27.6354 30.9323 27.7342 31.1808 27.7342Z" fill="black"/>
<path d="M38.4728 19.5047C38.1067 19.1387 37.5131 19.1387 37.1469 19.5047L35.9537 20.698L34.6279 19.3723L35.8211 18.179C36.1872 17.8129 36.1872 17.2193 35.8211 16.8531C35.455 16.4871 34.8614 16.4871 34.4952 16.8531L33.302 18.0464L31.9762 16.7206L33.1694 15.5273C33.5355 15.1613 33.5356 14.5676 33.1694 14.2014C32.8033 13.8355 32.2097 13.8355 31.8436 14.2014L29.9875 16.0576C29.8117 16.2334 29.7129 16.4719 29.7129 16.7205C29.7129 16.9691 29.8117 17.2075 29.9875 17.3834L35.2908 22.6866C35.4738 22.8696 35.7138 22.9612 35.9537 22.9612C36.1936 22.9612 36.4336 22.8696 36.6166 22.6866L38.4727 20.8304C38.8389 20.4644 38.8389 19.8708 38.4728 19.5047Z" fill="black"/>
<path d="M28.1037 30.2836C28.5648 30.5187 29.1295 30.3352 29.3646 29.8738C29.5996 29.4125 29.4162 28.848 28.9547 28.613L21.928 25.0333C21.5661 24.8489 21.1267 24.9185 20.8396 25.2057C20.5524 25.4929 20.4827 25.9323 20.6671 26.2941L24.2469 33.3209C24.4124 33.646 24.7415 33.8331 25.0829 33.833C25.2261 33.833 25.3715 33.8001 25.5077 33.7307C25.969 33.4956 26.1525 32.9312 25.9176 32.4698L25.6301 31.9055L27.5395 29.9961L28.1037 30.2836ZM24.7351 30.1489L23.6472 28.0134L25.7828 29.1013L24.7351 30.1489Z" fill="black"/>
<path d="M19.116 37.5357C18.7499 37.9018 18.7498 38.4955 19.116 38.8616C19.299 39.0446 19.539 39.1362 19.7789 39.1362C20.0188 39.1362 20.2588 39.0446 20.4418 38.8616L21.7676 37.5358C22.8642 36.4393 22.8642 34.655 21.7676 33.5584C20.7253 32.5161 19.0623 32.4652 17.9584 33.4042C17.9241 33.4302 17.8908 33.4578 17.8595 33.4891L17.7902 33.5584C17.6131 33.7354 17.3777 33.8329 17.1273 33.8329C16.8769 33.8329 16.6415 33.7354 16.4644 33.5584C16.0988 33.1928 16.0988 32.5981 16.4644 32.2325L17.7902 30.9067C18.1563 30.5406 18.1563 29.947 17.7902 29.5808C17.4241 29.2149 16.8305 29.2148 16.4644 29.5808L15.1385 30.9066C14.0419 32.0032 14.0419 33.7875 15.1385 34.8842C15.6697 35.4153 16.376 35.7078 17.1272 35.7078C17.8773 35.7078 18.5827 35.4161 19.1139 34.886C19.1146 34.8854 19.1153 34.8848 19.116 34.8842C19.4814 34.5185 20.0762 34.5185 20.4418 34.8842C20.6188 35.0612 20.7163 35.2966 20.7163 35.547C20.7163 35.7975 20.6188 36.0329 20.4418 36.2099L19.116 37.5357Z" fill="black"/>
<path d="M16.0628 6.05215C15.612 5.79772 15.0401 5.95671 14.7856 6.40765L8.73878 17.1188C8.48425 17.5698 8.64334 18.1415 9.09427 18.3961C9.23996 18.4783 9.39811 18.5174 9.5543 18.5174C9.88148 18.5174 10.1992 18.3458 10.3715 18.0406L16.4183 7.32939C16.6728 6.87845 16.5137 6.30658 16.0628 6.05215Z" fill="black"/>
<path d="M11.7353 8.43722C11.7353 6.88622 10.4735 5.62444 8.9225 5.62444C7.37149 5.62444 6.10962 6.88622 6.10962 8.43722C6.10962 9.98822 7.3714 11.2501 8.9224 11.2501C10.4734 11.2501 11.7353 9.98822 11.7353 8.43722ZM7.98462 8.43722C7.98462 7.92009 8.40528 7.49944 8.9224 7.49944C9.43953 7.49944 9.86018 7.92009 9.86018 8.43722C9.86018 8.95443 9.43953 9.37509 8.9224 9.37509C8.40528 9.37509 7.98462 8.95443 7.98462 8.43722Z" fill="black"/>
<path d="M34.8738 33.1233C34.6263 33.1233 34.3853 33.2236 34.211 33.398C34.0366 33.5723 33.9363 33.8142 33.9363 34.0608C33.9363 34.3074 34.0366 34.5493 34.211 34.7236C34.3853 34.8979 34.6263 34.9983 34.8738 34.9983C35.1203 34.9983 35.3622 34.898 35.5366 34.7236C35.711 34.5493 35.8113 34.3074 35.8113 34.0608C35.8113 33.8142 35.711 33.5723 35.5366 33.398C35.3622 33.2237 35.1203 33.1233 34.8738 33.1233Z" fill="black"/>
</g>
<defs>
<clipPath id="clip0">
<rect width="48" height="48" fill="white"/>
</clipPath>
</defs>
</svg>
