<svg width="48" height="48" viewBox="0 0 48 48" fill="none" xmlns="http://www.w3.org/2000/svg">
<path d="M36.7148 23.9741H22.8249V13.3268C22.8249 10.6257 20.5679 8.3745 17.8715 8.3745H14.1775C12.9948 8.3745 12.0045 9.21272 11.7685 10.3262C11.4571 10.2075 11.1197 10.142 10.7671 10.142C8.3941 10.142 6.4636 12.0726 6.4636 14.4455V15.4005C6.4636 17.7735 8.39419 19.704 10.7671 19.704C11.1414 19.704 11.4987 19.6301 11.8259 19.4971C12.1383 20.4987 13.0743 21.2279 14.1775 21.2279H15.5595L16.0586 23.974H8.47969C7.96201 23.974 7.54219 24.3937 7.54219 24.9115V42.4882C7.54219 45.5273 10.0148 47.9999 13.0539 47.9999H32.1407C35.1799 47.9999 37.6523 45.5273 37.6523 42.4882V39.3759C37.6523 38.8582 37.2325 38.4384 36.7148 38.4384C36.1972 38.4384 35.7773 38.8582 35.7773 39.3759V42.4882C35.7773 44.4935 34.146 46.1249 32.1407 46.1249H13.0539C11.0485 46.1249 9.41719 44.4935 9.41719 42.4882V25.8491H16.2002V28.0462C16.2002 29.4625 17.3526 30.6149 18.7689 30.6149H26.4256C27.842 30.6149 28.9944 29.4625 28.9944 28.0462V25.8491H35.7773V31.1333C35.7773 31.6511 36.1972 32.0708 36.7148 32.0708C37.2325 32.0708 37.6523 31.6511 37.6523 31.1333V24.9116C37.6523 24.3938 37.2325 23.9741 36.7148 23.9741ZM11.7144 16.8817C11.7144 17.4041 11.2894 17.829 10.7671 17.829C9.42807 17.829 8.3386 16.7395 8.3386 15.4005V14.4455C8.3386 13.1063 9.42807 12.017 10.7671 12.017C11.2894 12.017 11.7144 12.4419 11.7144 12.9643V16.8817ZM14.1775 19.353C13.8535 19.353 13.5899 19.0894 13.5899 18.7654V10.837C13.5899 10.513 13.8535 10.2495 14.1775 10.2495H17.8715C19.5471 10.2495 20.9499 11.6484 20.9499 13.3268V23.9741H17.9644L17.2644 20.1228C17.1834 19.677 16.7951 19.3529 16.342 19.3529H14.1775V19.353ZM27.1194 28.0462C27.1194 28.4287 26.8082 28.7399 26.4256 28.7399H18.7689C18.3863 28.7399 18.0752 28.4287 18.0752 28.0462V25.8496L27.1194 25.8492V28.0462H27.1194Z" fill="#010101"/>
<path d="M37.2329 1.76766C36.8805 1.76766 36.5432 1.83319 36.2319 1.95169C35.9958 0.838219 35.0053 0 33.8225 0H30.1285C27.4285 0 25.1755 2.253 25.1755 4.95291V18.6759C25.1755 20.326 26.518 21.6685 28.1681 21.6685C29.6122 21.6685 30.8477 20.6401 31.1107 19.2214L32.4224 12.8537H33.8226C34.9258 12.8537 35.862 12.1246 36.1746 11.1229C36.5017 11.2557 36.8588 11.3296 37.233 11.3296C39.606 11.3296 41.5365 9.399 41.5365 7.02609V6.07116C41.5365 3.69825 39.6059 1.76766 37.2329 1.76766ZM34.4107 10.3907C34.4107 10.715 34.1469 10.9788 33.8226 10.9788H31.6584C31.2135 10.9788 30.8299 11.2914 30.7402 11.7271L29.2722 18.8531C29.2706 18.8604 29.2693 18.8678 29.2679 18.8752C29.1715 19.4073 28.709 19.7935 28.1682 19.7935C27.552 19.7935 27.0506 19.2922 27.0506 18.6759V4.95291C27.0505 3.27506 28.4505 1.875 30.1285 1.875H33.8225C34.1468 1.875 34.4106 2.13881 34.4106 2.46309V10.3907H34.4107ZM39.6615 7.02619C39.6615 8.36531 38.572 9.45469 37.233 9.45469C36.7107 9.45469 36.2858 9.02972 36.2858 8.50744V4.59C36.2858 4.06763 36.7107 3.64266 37.233 3.64266C38.572 3.64266 39.6615 4.73213 39.6615 6.07116V7.02619Z" fill="#010101"/>
<path d="M16.4034 15.2812C16.5545 15.6496 16.9413 15.8883 17.3385 15.8576C17.73 15.8273 18.0668 15.551 18.1721 15.1729C18.3939 14.3766 17.4991 13.6925 16.7881 14.1187C16.3951 14.3542 16.2271 14.8579 16.4034 15.2812Z" fill="#010101"/>
<path d="M31.7082 6.07872C31.5117 5.60706 30.9565 5.37634 30.4838 5.57153C30.0117 5.76643 29.7808 6.32425 29.9766 6.7959C30.1725 7.26793 30.7285 7.49865 31.201 7.30309C31.672 7.10809 31.9044 6.5499 31.7082 6.07872Z" fill="#010101"/>
<path d="M37.4943 34.6725C37.2086 34.2481 36.6207 34.131 36.194 34.4138C35.7676 34.6962 35.6538 35.2891 35.9352 35.7131C36.2172 36.138 36.8117 36.2568 37.2356 35.9728C37.6597 35.6888 37.7776 35.097 37.4943 34.6725Z" fill="#010101"/>
</svg>
