<svg width="48" height="48" viewBox="0 0 48 48" fill="none" xmlns="http://www.w3.org/2000/svg">
<path d="M47.8855 38.6144L47.8945 38.6099L44 30.8209V12.0572C44 9.85114 42.2061 8.05714 39.9999 8.05714H7.99997C5.79394 8.05714 3.99994 9.85105 3.99994 12.0572V30.8209L0.105469 38.6099L0.114469 38.6144C0.0467812 38.7493 0 38.8957 0 39.0572V40.0572C0 42.2632 1.79391 44.0571 4.00003 44.0571H44.0001C46.2061 44.0571 48 42.2632 48 40.0571V39.0571C48 38.8957 47.9532 38.7493 47.8855 38.6144ZM6 12.0572C6 10.9547 6.89747 10.0572 7.99997 10.0572H39.9999C41.1024 10.0572 41.9999 10.9547 41.9999 12.0572V30.0572H6V12.0572ZM5.61816 32.0571H42.3818L45.3818 38.0571H29C28.7344 38.0571 28.4804 38.1626 28.2929 38.3501L27.5858 39.0572H20.414L19.7069 38.3501C19.5194 38.1626 19.2655 38.0571 18.9998 38.0571H2.61816L5.61816 32.0571ZM44 42.0572H4.00003C2.89753 42.0572 2.00006 41.1597 2.00006 40.0572H18.5859L19.293 40.7643C19.4805 40.9518 19.7344 41.0572 20.0001 41.0572H28C28.2656 41.0572 28.5196 40.9518 28.7071 40.7643L29.4142 40.0572H46.0001C46 41.1597 45.1026 42.0572 44 42.0572Z" fill="#010101"/>
</svg>
