<svg width="40" height="40" viewBox="0 0 40 40" fill="none" xmlns="http://www.w3.org/2000/svg">
<path d="M25.01 3.57385H2.46468C1.10562 3.57385 0 4.67948 0 6.03854V22.3212C0 23.6803 1.10562 24.7859 2.46468 24.7859H5.01007V28.9507C5.01007 29.4427 5.30382 29.8823 5.75843 30.0706C5.90929 30.1331 6.06718 30.1635 6.22358 30.1635C6.53843 30.1635 6.84702 30.0403 7.07952 29.8079L12.1014 24.786H25.0101C26.3691 24.786 27.4747 23.6804 27.4747 22.3213V6.03854C27.4747 4.67948 26.3691 3.57385 25.01 3.57385ZM26.3028 22.3212C26.3028 23.0341 25.7229 23.614 25.01 23.614H11.8586V23.6141C11.7033 23.6141 11.5542 23.6758 11.4444 23.7858L6.25077 28.9793C6.24093 28.989 6.23163 28.9983 6.20678 28.988C6.18186 28.9777 6.18186 28.9646 6.18186 28.9508V24.2001C6.18186 23.8765 5.91952 23.6141 5.59593 23.6141H2.46468C1.75179 23.6141 1.17187 23.0342 1.17187 22.3213V6.03854C1.17187 5.32565 1.75179 4.74573 2.46468 4.74573H25.01C25.7229 4.74573 26.3028 5.32565 26.3028 6.03854V22.3212Z" fill="#67CC8C"/>
<path d="M37.5354 9.83643H29.394C29.0704 9.83643 28.8081 10.0988 28.8081 10.4224C28.8081 10.746 29.0704 11.0083 29.394 11.0083H37.5354C38.2483 11.0083 38.8282 11.5882 38.8282 12.3011V28.5838C38.8282 29.2967 38.2483 29.8766 37.5354 29.8766H34.4041C34.0805 29.8766 33.8182 30.139 33.8182 30.4626V35.2133C33.8182 35.2271 33.8182 35.2402 33.7932 35.2505C33.7683 35.2607 33.759 35.2515 33.7493 35.2418L28.5558 30.0483C28.4459 29.9383 28.2969 29.8766 28.1415 29.8766H14.9901C14.2772 29.8766 13.6973 29.2967 13.6973 28.5838V26.705C13.6973 26.3814 13.4349 26.1191 13.1113 26.1191C12.7877 26.1191 12.5254 26.3814 12.5254 26.705V28.5838C12.5254 29.9429 13.631 31.0485 14.9901 31.0485H27.8988L32.9207 36.0704C33.1532 36.3029 33.4618 36.4261 33.7766 36.4261C33.9329 36.4261 34.0909 36.3957 34.2418 36.3332C34.6964 36.1449 34.9901 35.7053 34.9901 35.2133V31.0485H37.5355C38.8946 31.0485 40.0002 29.9429 40.0002 28.5838V12.3012C40.0001 10.9421 38.8945 9.83643 37.5354 9.83643Z" fill="#67CC8C"/>
<path fill-rule="evenodd" clip-rule="evenodd" d="M6.22852 9.14285C6.22852 8.7957 6.50994 8.51428 6.85709 8.51428H19.1428C19.4899 8.51428 19.7714 8.7957 19.7714 9.14285C19.7714 9.49 19.4899 9.77143 19.1428 9.77143H6.85709C6.50994 9.77143 6.22852 9.49 6.22852 9.14285Z" fill="#67CC8C"/>
<path fill-rule="evenodd" clip-rule="evenodd" d="M6.22852 13.1429C6.22852 12.7957 6.50994 12.5143 6.85709 12.5143H19.1428C19.4899 12.5143 19.7714 12.7957 19.7714 13.1429C19.7714 13.49 19.4899 13.7714 19.1428 13.7714H6.85709C6.50994 13.7714 6.22852 13.49 6.22852 13.1429Z" fill="#67CC8C"/>
<path fill-rule="evenodd" clip-rule="evenodd" d="M6.22852 17.1429C6.22852 16.7957 6.50994 16.5143 6.85709 16.5143H13.1428C13.49 16.5143 13.7714 16.7957 13.7714 17.1429C13.7714 17.49 13.49 17.7714 13.1428 17.7714H6.85709C6.50994 17.7714 6.22852 17.49 6.22852 17.1429Z" fill="#67CC8C"/>
</svg>
