<svg width="32" height="26" viewBox="0 0 32 26" fill="none" xmlns="http://www.w3.org/2000/svg">
<g clip-path="url(#clip0)">
<path d="M18.1339 7.46688H14.9332V0.533126C14.9332 0.213125 14.7201 0 14.4001 0H6.93324C6.61324 0 6.40011 0.213125 6.40011 0.533126V7.46688H3.20012C2.88012 7.46688 2.66699 7.68001 2.66699 8.00001V14.9331H3.73324V8.53313H4.80012V11.2C4.80012 11.4131 4.90699 11.575 5.12012 11.6269C5.19929 11.6789 5.29195 11.7066 5.38668 11.7066C5.4814 11.7066 5.57406 11.6789 5.65324 11.6269L6.93324 10.7731L8.21324 11.6269C8.31065 11.6857 8.41998 11.722 8.53324 11.7331C8.62545 11.7414 8.71808 11.7229 8.80011 11.68C8.88191 11.6295 8.94939 11.5588 8.99611 11.4748C9.04283 11.3908 9.06724 11.2962 9.06699 11.2V8.53313H10.1332V14.9331H11.2001V8.53313H12.2689V11.2C12.2689 11.4131 12.3751 11.575 12.5889 11.6269C12.668 11.6789 12.7607 11.7066 12.8554 11.7066C12.9501 11.7066 13.0428 11.6789 13.122 11.6269L14.402 10.7731L15.682 11.6269C15.7793 11.6858 15.8887 11.7221 16.002 11.7331C16.0939 11.7423 16.1865 11.725 16.2689 11.6831C16.3505 11.6325 16.4179 11.5618 16.4645 11.4778C16.5111 11.3938 16.5354 11.2992 16.5351 11.2031V8.53313H17.602V14.4394L18.6645 13.7225V8.00001C18.667 7.68313 18.4564 7.46688 18.1339 7.46688ZM9.60011 1.06688H11.7332V2.77313L10.987 2.24C10.8896 2.18099 10.7803 2.14447 10.667 2.13313C10.5601 2.13313 10.4532 2.18688 10.347 2.18688L9.59699 2.72L9.60011 1.06688ZM8.00011 10.24L7.25011 9.70688C7.15294 9.64742 7.04351 9.61087 6.93011 9.60001C6.82386 9.60001 6.71699 9.65314 6.61011 9.65314L5.86387 10.1869V8.53313H7.99699L8.00011 10.24ZM7.46699 7.46688V1.06688H8.53324V3.73313C8.53324 3.94688 8.64011 4.10813 8.85324 4.16C8.93242 4.21228 9.02522 4.24016 9.12011 4.24016C9.215 4.24016 9.3078 4.21228 9.38699 4.16L10.667 3.30813L11.947 4.16125C12.0443 4.22044 12.1536 4.25697 12.267 4.26813C12.359 4.27634 12.4514 4.2579 12.5332 4.215C12.615 4.16447 12.6825 4.09382 12.7292 4.00979C12.776 3.92576 12.8004 3.83115 12.8001 3.735V1.06688H13.867V7.46688H7.46699ZM15.467 10.24L14.717 9.70688C14.6198 9.64742 14.5104 9.61087 14.397 9.60001C14.2901 9.60001 14.1839 9.65314 14.077 9.65314L13.327 10.1869V8.53313H15.4607L15.467 10.24Z" fill="#67CC8C"/>
<path d="M31.3069 16.48L29.2269 15.6269L27.8937 10.2931C27.7337 9.54687 27.0938 9.06687 26.3475 9.06687H21.3312V5.33311C21.3312 5.01311 21.1181 4.79999 20.7981 4.79999C20.4781 4.79999 20.265 5.01311 20.265 5.33311V10.1331C20.2675 10.8104 20.1261 11.4804 19.8503 12.099C19.5745 12.7175 19.1705 13.2705 18.665 13.7212C18.63 13.7519 18.0631 14.2406 17.6025 14.4381C17.0145 14.7278 16.3734 14.8937 15.7187 14.9256H15.7156C15.6338 14.9294 15.5519 14.9313 15.4694 14.9313H0.533123C0.213123 14.9313 0 15.145 0 15.465V21.865C0.00049456 22.1479 0.113015 22.4191 0.31295 22.6193C0.512885 22.8195 0.78396 22.9323 1.06688 22.9331H3.24562C3.37116 23.679 3.75691 24.3562 4.33438 24.8446C4.91185 25.333 5.64369 25.6009 6.4 25.6009C7.1563 25.6009 7.88815 25.333 8.46562 24.8446C9.04309 24.3562 9.42883 23.679 9.55437 22.9331H22.4456C22.5712 23.679 22.9569 24.3562 23.5344 24.8446C24.1118 25.333 24.8437 25.6009 25.6 25.6009C26.3563 25.6009 27.0882 25.333 27.6656 24.8446C28.2431 24.3562 28.6288 23.679 28.7544 22.9331H30.9331C31.2157 22.9323 31.4865 22.8197 31.6864 22.62C31.8863 22.4202 31.999 22.1495 32 21.8669V17.4956C32.0069 17.2747 31.9436 17.0574 31.819 16.8748C31.6944 16.6923 31.5151 16.554 31.3069 16.48ZM6.4 24.5331C5.97811 24.5331 5.56569 24.408 5.2149 24.1736C4.86411 23.9393 4.5907 23.6061 4.42925 23.2163C4.2678 22.8265 4.22556 22.3976 4.30787 21.9839C4.39017 21.5701 4.59333 21.19 4.89165 20.8917C5.18997 20.5933 5.57006 20.3902 5.98384 20.3079C6.39763 20.2256 6.82653 20.2678 7.21631 20.4293C7.60609 20.5907 7.93924 20.8641 8.17363 21.2149C8.40802 21.5657 8.53312 21.9781 8.53312 22.4C8.53147 22.9652 8.30621 23.5069 7.90653 23.9065C7.50685 24.3062 6.96523 24.5315 6.4 24.5331ZM25.6 24.5331C25.1781 24.5331 24.7657 24.408 24.4149 24.1736C24.0641 23.9393 23.7907 23.6061 23.6292 23.2163C23.4678 22.8265 23.4256 22.3976 23.5079 21.9839C23.5902 21.5701 23.7933 21.19 24.0917 20.8917C24.39 20.5933 24.7701 20.3902 25.1838 20.3079C25.5976 20.2256 26.0265 20.2678 26.4163 20.4293C26.8061 20.5907 27.1392 20.8641 27.3736 21.2149C27.608 21.5657 27.7331 21.9781 27.7331 22.4C27.7315 22.9652 27.5062 23.5069 27.1065 23.9065C26.7068 24.3062 26.1652 24.5315 25.6 24.5331ZM30.9331 21.8669H28.7544C28.665 21.35 28.4506 20.8628 28.1299 20.4476C27.8092 20.0325 27.3919 19.702 26.9144 19.485L26.8519 19.4563L26.8113 19.4394C26.7769 19.4256 26.7419 19.4113 26.7069 19.3981L26.6781 19.3881C26.6388 19.3738 26.5994 19.3606 26.56 19.3481L26.5337 19.34C26.4931 19.3275 26.4525 19.3156 26.4087 19.305L26.3813 19.2981C26.3406 19.2875 26.3 19.2781 26.2563 19.2694L26.225 19.2631C26.1856 19.255 26.1456 19.2475 26.105 19.2413L26.0694 19.2356C26.0306 19.23 25.9913 19.225 25.9519 19.2206L25.9119 19.2156C25.8725 19.2119 25.8331 19.2094 25.7931 19.2069L25.7544 19.2038C25.7019 19.2038 25.6494 19.2 25.5962 19.2C25.5431 19.2 25.49 19.2 25.4381 19.2038L25.3987 19.2069C25.3587 19.2069 25.3194 19.2119 25.28 19.2156L25.24 19.2206C25.2006 19.225 25.1619 19.23 25.1225 19.2356L25.0869 19.2413C25.0469 19.2475 25.0069 19.255 24.9669 19.2631L24.9356 19.2694C24.8944 19.2781 24.8538 19.2875 24.8106 19.2975L24.7831 19.305C24.7419 19.3156 24.7012 19.3275 24.6581 19.34L24.6325 19.3481C24.5925 19.3606 24.5531 19.3738 24.5138 19.3881L24.4856 19.3981C24.45 19.4113 24.4156 19.4256 24.3806 19.44L24.3406 19.4563L24.2781 19.485C23.8006 19.702 23.3833 20.0325 23.0626 20.4476C22.7419 20.8628 22.5275 21.35 22.4381 21.8669H9.55437C9.46498 21.35 9.25062 20.8628 8.92993 20.4476C8.60924 20.0325 8.19195 19.702 7.71437 19.485L7.65187 19.4563L7.61125 19.44C7.57687 19.4256 7.54188 19.4113 7.50688 19.3981L7.47812 19.3881C7.43875 19.3744 7.39937 19.3606 7.36 19.3481L7.33375 19.34C7.29313 19.3275 7.2525 19.3156 7.20875 19.305L7.18125 19.2981C7.14062 19.2875 7.1 19.2781 7.05625 19.2694L7.025 19.2631C6.98562 19.255 6.94563 19.2481 6.905 19.2413L6.86937 19.2356C6.83062 19.23 6.79125 19.225 6.75187 19.2206L6.71187 19.2163C6.67312 19.2119 6.63312 19.2094 6.59375 19.2069H6.55437C6.50187 19.2069 6.44938 19.2025 6.39625 19.2025C6.34313 19.2025 6.29062 19.2025 6.23812 19.2069H6.19875C6.15937 19.2069 6.11937 19.2119 6.08 19.2163L6.04 19.2206C6.00062 19.225 5.96187 19.23 5.92312 19.2356L5.88688 19.2413C5.84688 19.2481 5.80687 19.255 5.76687 19.2631L5.73562 19.2694C5.695 19.2781 5.65375 19.2875 5.61062 19.2981L5.58375 19.305C5.5425 19.3156 5.50125 19.3275 5.45875 19.34L5.43312 19.3481C5.39312 19.3606 5.35375 19.3744 5.315 19.3881L5.28625 19.3981C5.25063 19.4113 5.21625 19.4256 5.18125 19.44L5.14125 19.4563L5.07875 19.485C4.60117 19.702 4.18388 20.0325 3.86319 20.4476C3.5425 20.8628 3.32814 21.35 3.23875 21.8669H1.06688V16H15.4669C15.5294 16 15.5863 16 15.6463 15.9969H15.6763C15.7331 15.9969 15.7887 15.9919 15.8444 15.9881C16.2215 15.9644 16.5955 15.9046 16.9612 15.8094L17.0344 15.79L17.0812 15.7769C17.5365 15.6509 17.9766 15.4755 18.3937 15.2538C18.4381 15.2245 18.4786 15.1899 18.5144 15.1506C19.3756 14.6275 20.0871 13.8908 20.5799 13.0118C21.0727 12.1328 21.33 11.1414 21.3269 10.1337H26.3406C26.4635 10.1385 26.5816 10.1825 26.6775 10.2593C26.7735 10.3362 26.8423 10.4418 26.8738 10.5606L28.0887 15.4675H24.1512C23.9684 15.4643 23.794 15.3902 23.6647 15.2609C23.5354 15.1316 23.4613 14.9572 23.4581 14.7744V12.2669C23.4581 11.9469 23.2444 11.7337 22.9244 11.7337C22.6044 11.7337 22.3912 11.9469 22.3912 12.2669V14.7738C22.3953 15.2393 22.5821 15.6846 22.9113 16.0138C23.2404 16.3429 23.6857 16.5297 24.1512 16.5338H28.5781L30.9244 17.44L30.9331 21.8669Z" fill="black"/>
<path d="M24.5335 18.1332C24.5335 18.4532 24.3204 18.6669 24.0004 18.6669H22.9335C22.6135 18.6669 22.4004 18.4532 22.4004 18.1332C22.4004 17.8132 22.6135 17.6 22.9335 17.6H24.0004C24.3204 17.6 24.5335 17.8132 24.5335 18.1332Z" fill="black"/>
<path d="M26.6343 22.6433C26.7696 22.0699 26.4144 21.4953 25.841 21.3599C25.2675 21.2246 24.6929 21.5797 24.5576 22.1532C24.4222 22.7266 24.7774 23.3013 25.3508 23.4366C25.9243 23.5719 26.4989 23.2168 26.6343 22.6433Z" fill="black"/>
<path d="M7.15381 23.1544C7.57045 22.7378 7.57045 22.0623 7.15381 21.6456C6.73717 21.229 6.06166 21.229 5.64502 21.6456C5.22838 22.0623 5.22838 22.7378 5.64502 23.1544C6.06166 23.5711 6.73717 23.5711 7.15381 23.1544Z" fill="black"/>
</g>
<defs>
<clipPath id="clip0">
<rect width="32" height="25.6" fill="white"/>
</clipPath>
</defs>
</svg>
