<svg width="50" height="50" viewBox="0 0 50 50" fill="none" xmlns="http://www.w3.org/2000/svg">
<path d="M10.9091 33.6616C10.0735 33.6616 9.39386 34.3413 9.39386 35.1769C9.39386 36.0124 10.0735 36.6921 10.9091 36.6921C11.7446 36.6921 12.4243 36.0124 12.4243 35.1769C12.4243 34.3413 11.7446 33.6616 10.9091 33.6616Z" fill="#67CC8C"/>
<path d="M42.2222 33.6616C41.3866 33.6616 40.7069 34.3413 40.7069 35.1769C40.7069 36.0124 41.3866 36.6921 42.2222 36.6921C43.0577 36.6921 43.7374 36.0124 43.7374 35.1769C43.7374 34.3413 43.0577 33.6616 42.2222 33.6616Z" fill="#67CC8C"/>
<path d="M48.4286 23.9483L42.7896 22.0687L40.1539 14.8208C39.8249 13.916 38.957 13.3081 37.9942 13.3081H31.2122V11.692C31.2122 10.8564 30.5325 10.1768 29.697 10.1768H1.51523C0.679688 10.1768 0 10.8565 0 11.6921V32.8284C0 33.664 0.679688 34.3437 1.51523 34.3437H6.33887C6.28965 34.6142 6.2626 34.8924 6.2626 35.1769C6.2626 37.739 8.34707 39.8234 10.9092 39.8234C13.4713 39.8234 15.5558 37.739 15.5558 35.1769C15.5558 34.8923 15.5287 34.6142 15.4795 34.3437H37.6521C37.6028 34.6142 37.5758 34.8924 37.5758 35.1769C37.5758 37.739 39.6603 39.8234 42.2224 39.8234C44.7845 39.8234 46.8689 37.739 46.8689 35.1769C46.8689 34.8149 46.826 34.463 46.7474 34.1247L48.2973 33.3498C49.3475 32.8245 50 31.7686 50 30.594V26.1285C50 25.1379 49.3686 24.2617 48.4286 23.9483ZM1.46484 11.6921C1.46484 11.6643 1.4874 11.6416 1.51523 11.6416H29.697C29.7248 11.6416 29.7474 11.6642 29.7474 11.692V27.3989H1.46484V11.6921ZM10.9091 38.3586C9.15469 38.3586 7.72734 36.9312 7.72734 35.1769C7.72734 33.4225 9.15469 31.9951 10.9091 31.9951C12.6635 31.9951 14.0908 33.4225 14.0908 35.1769C14.0909 36.9312 12.6636 38.3586 10.9091 38.3586ZM29.7474 32.8787H14.9451C14.144 31.4774 12.6355 30.5303 10.9091 30.5303C9.18262 30.5303 7.67422 31.4774 6.87314 32.8787H1.51523C1.4874 32.8787 1.46484 32.8562 1.46484 32.8283V28.8638H29.7474V32.8787ZM39.7166 17.9043L41.1766 21.9192H39.6039L38.1439 17.9043H39.7166ZM31.2122 14.7729H37.9942C38.3434 14.7729 38.658 14.9934 38.7773 15.3214L39.1839 16.4394H31.2122V14.7729ZM31.2122 17.9043H36.5853L38.0452 21.9192H31.2122V17.9043ZM42.2222 38.3586C40.4678 38.3586 39.0404 36.9312 39.0404 35.1769C39.0404 33.4225 40.4678 31.9951 42.2222 31.9951C43.9766 31.9951 45.4039 33.4225 45.4039 35.1769C45.4039 36.9312 43.9766 38.3586 42.2222 38.3586ZM48.5352 27.3988H47.702C47.2975 27.3988 46.9695 27.7268 46.9695 28.1312C46.9695 28.5357 47.2975 28.8637 47.702 28.8637H48.5352V30.5939C48.5352 31.2102 48.1929 31.764 47.6419 32.0396L46.192 32.7645C45.3756 31.4259 43.9016 30.5303 42.2222 30.5303C40.4957 30.5303 38.9873 31.4774 38.1862 32.8787H31.2122V28.8638H44.5707C44.9752 28.8638 45.3031 28.5358 45.3031 28.1313C45.3031 27.7269 44.9752 27.3989 44.5707 27.3989H31.2122V23.384H42.1033L47.9654 25.338C48.3062 25.4516 48.5352 25.7692 48.5352 26.1284V27.3988Z" fill="#67CC8C"/>
<path d="M24.5806 18.8841L19.1008 15.7529C18.7497 15.5522 18.3023 15.6742 18.1015 16.0254C17.9008 16.3767 18.0228 16.8241 18.374 17.0247L21.4592 18.7877H6.99503C6.59053 18.7877 6.2626 19.1157 6.2626 19.5201C6.2626 19.9246 6.59053 20.2525 6.99503 20.2525H21.4592L18.374 22.0155C18.0229 22.2161 17.9008 22.6635 18.1015 23.0148C18.2366 23.2513 18.4838 23.3839 18.7381 23.3839C18.8613 23.3839 18.9862 23.3528 19.1008 23.2872L24.5806 20.156C24.8087 20.0256 24.9496 19.7829 24.9496 19.52C24.9496 19.2572 24.8088 19.0146 24.5806 18.8841Z" fill="#67CC8C"/>
</svg>
