<svg width="32" height="32" viewBox="0 0 32 32" fill="none" xmlns="http://www.w3.org/2000/svg">
<path d="M31.4677 28.8002H26.6677V0.585776C26.6721 0.550076 26.6721 0.513977 26.6677 0.478276C26.6604 0.356683 26.6103 0.241582 26.5264 0.153277C26.5253 0.151519 26.5238 0.150025 26.5221 0.148902L26.5177 0.144526C26.4294 0.0606173 26.3143 0.0105914 26.1927 0.00327577C26.1572 -0.00109192 26.1213 -0.00109192 26.0858 0.00327577H5.91893C5.88344 -0.00109192 5.84755 -0.00109192 5.81206 0.00327577C5.69047 0.0105914 5.57536 0.0606173 5.48706 0.144526L5.48268 0.148902L5.47831 0.153277C5.39426 0.241743 5.34423 0.35709 5.33706 0.478902C5.33165 0.514265 5.3306 0.550157 5.33393 0.585776V19.2002H6.40081V1.8139L7.46768 2.88015V19.2002H8.53393V3.20015H23.4677V30.4002H17.2233V31.467H31.4677C31.7877 31.467 32.0008 31.2539 32.0008 30.9339V29.3339C32.0008 29.0139 31.7877 28.8002 31.4677 28.8002ZM23.7877 2.1339H8.21393L7.14768 1.06703H24.8539L23.7877 2.1339ZM25.6002 30.4002H24.5333V2.88015L25.6002 1.8139V30.4002ZM30.9333 30.4002H26.6671V29.867H30.9321L30.9333 30.4002Z" fill="#010101"/>
<path d="M21.6527 14.4001H20.5327C20.1947 14.4048 19.8719 14.5412 19.6328 14.7802C19.3938 15.0193 19.2574 15.3421 19.2527 15.6801V16.0001H18.3996C18.224 15.9984 18.0498 16.0317 17.8872 16.0981C17.7246 16.1645 17.577 16.2627 17.4528 16.3869C17.3286 16.5111 17.2305 16.6589 17.1642 16.8215C17.0979 16.9841 17.0646 17.1583 17.0665 17.3339C17.0647 17.5094 17.098 17.6836 17.1644 17.8461C17.2308 18.0087 17.3289 18.1563 17.453 18.2805C17.5772 18.4046 17.7248 18.5027 17.8874 18.5691C18.0499 18.6355 18.224 18.6688 18.3996 18.667H19.2527V18.987C19.2574 19.325 19.3938 19.6479 19.6328 19.8869C19.8719 20.126 20.1947 20.2623 20.5327 20.267H21.6527C22.3465 20.267 22.9327 19.6801 22.9327 18.9339V15.6801C22.9282 15.3421 22.7919 15.0191 22.5528 14.7801C22.3137 14.541 21.9908 14.4047 21.6527 14.4001ZM18.4027 17.6001C18.3671 17.6026 18.3313 17.5975 18.2979 17.585C18.2644 17.5725 18.234 17.553 18.2087 17.5277C18.1834 17.5025 18.1638 17.4721 18.1513 17.4387C18.1387 17.4053 18.1334 17.3695 18.1359 17.3339C18.1334 17.2982 18.1385 17.2624 18.1511 17.2289C18.1636 17.1954 18.1832 17.1649 18.2085 17.1396C18.2338 17.1143 18.2642 17.0947 18.2977 17.0822C18.3312 17.0697 18.367 17.0645 18.4027 17.067H20.2696V17.6001H18.4027ZM21.8159 18.987C21.8122 19.0423 21.7886 19.0944 21.7494 19.1336C21.7102 19.1728 21.658 19.1965 21.6027 19.2001H20.4827C20.4274 19.1965 20.3753 19.1728 20.3361 19.1336C20.2969 19.0944 20.2733 19.0423 20.2696 18.987V18.667H20.8027C21.1227 18.667 21.3358 18.4539 21.3358 18.1339V16.5333C21.3358 16.2133 21.1227 16.0001 20.8027 16.0001H20.2696V15.7333C20.2733 15.6779 20.2969 15.6258 20.3361 15.5866C20.3753 15.5474 20.4274 15.5238 20.4827 15.5201H21.6027C21.658 15.5238 21.7102 15.5474 21.7494 15.5866C21.7886 15.6258 21.8122 15.6779 21.8159 15.7333V18.987Z" fill="#010101"/>
<path d="M4.18125 31.4358V31.467H0.533127C0.213127 31.467 0 31.2539 0 30.9339V29.3339C0 29.0139 0.213127 28.8002 0.533127 28.8002H3.61063V29.867H1.06688V30.4002H3.61063V30.6795C3.6108 30.8504 3.66656 31.0166 3.7695 31.1531C3.87244 31.2895 4.01696 31.3887 4.18125 31.4358Z" fill="#010101"/>
<path d="M18.0249 30.2689V20.3353C18.0292 20.104 17.9853 19.8742 17.8959 19.6596C17.8065 19.445 17.6733 19.2501 17.5043 19.0865C17.3354 18.9229 17.1341 18.7939 16.9125 18.7073C16.6909 18.6207 16.4536 18.5782 16.2147 18.5824H13.2583C13.2583 18.2318 13.0172 17.9983 12.6551 17.9983H9.03474C8.6727 17.9983 8.43087 18.2318 8.43087 18.5824H4.81048C4.57158 18.5782 4.33425 18.6207 4.11268 18.7073C3.89111 18.7939 3.68983 18.9229 3.52087 19.0865C3.35191 19.2501 3.21874 19.445 3.12929 19.6596C3.03985 19.8742 2.99598 20.104 3.00029 20.3353V30.6065C3.00034 30.6883 3.00839 30.7699 3.02433 30.8503C3.08305 31.1363 3.24234 31.3937 3.47506 31.5788C3.70778 31.7638 3.99955 31.865 4.30066 31.8651H16.7259C17.0265 31.8643 17.3175 31.7628 17.5495 31.5778C17.7815 31.3928 17.9403 31.1358 17.9987 30.8503C18.0147 30.7699 18.0227 30.6883 18.0228 30.6065V30.308C18.0256 30.297 18.0249 30.2833 18.0249 30.2689ZM9.64003 19.1672H11.9933V22.1472L11.1483 21.5624C11.0477 21.5052 10.9333 21.475 10.8167 21.475C10.7 21.475 10.5856 21.5052 10.485 21.5624L9.64003 22.1472V19.1672ZM16.8787 30.2689C16.8787 30.6195 16.6376 30.853 16.2755 30.853H4.81048C4.44845 30.853 4.20732 30.6195 4.20732 30.2689V20.3353C4.20732 19.9847 4.44845 19.7512 4.81048 19.7512H8.43087V23.2571C8.43087 23.4906 8.55179 23.668 8.79291 23.7248C8.8825 23.7821 8.98749 23.8126 9.09485 23.8126C9.2022 23.8126 9.30719 23.7821 9.39678 23.7248L10.8421 22.7915L12.3504 23.7844C12.4398 23.8417 12.5447 23.8723 12.6519 23.8723C12.7592 23.8723 12.8641 23.8417 12.9535 23.7844C13.0461 23.729 13.1224 23.6516 13.1753 23.5596C13.2281 23.4675 13.2557 23.3638 13.2555 23.2585V19.7512H16.2727C16.6347 19.7512 16.8759 19.9847 16.8759 20.3353L16.8787 30.2689Z" fill="#67CC8C"/>
<path d="M16.2767 29.6848C16.2793 29.8058 16.2451 29.9249 16.1784 30.0272C16.1223 30.1056 16.0465 30.1689 15.9582 30.211C15.8698 30.2532 15.7719 30.2729 15.6735 30.2682H14.4665C14.3768 30.2719 14.2875 30.2558 14.2053 30.221C14.1231 30.1863 14.0501 30.1338 13.992 30.0676C13.9039 29.9584 13.8581 29.8227 13.8626 29.6841C13.8626 29.3335 14.1044 29.0994 14.4665 29.0994H15.6728C16.0348 29.1 16.2767 29.3342 16.2767 29.6848Z" fill="#67CC8C"/>
<path d="M16.2766 27.9319C16.2766 28.2825 16.0348 28.516 15.6728 28.516H13.2594C12.8974 28.516 12.6562 28.2825 12.6562 27.9319C12.6562 27.5813 12.8974 27.3478 13.2594 27.3478H15.6728C16.0348 27.3478 16.2766 27.5847 16.2766 27.9319Z" fill="#67CC8C"/>
</svg>
