<svg width="24" height="24" viewBox="0 0 24 24" fill="none" xmlns="http://www.w3.org/2000/svg">
<path d="M0 18.1625C0.0504844 19.11 0.834703 19.8629 1.79494 19.8629H22.2024C23.1952 19.8629 24 19.0581 24 18.0653V14.621H0V18.1625Z" fill="#73AF00"/>
<path d="M22.2024 4.13702H1.79494C0.834703 4.13702 0.0504844 4.88993 0 5.83751V9.37901H24V5.93468C24 4.94187 23.1952 4.13702 22.2024 4.13702Z" fill="#82AFFF"/>
<path d="M24 9.37918H0V14.6212H24V9.37918Z" fill="#FF4B55"/>
<path d="M12.5657 13.7161C11.637 13.7161 10.8836 12.9628 10.8836 12.0332C10.8836 11.1053 11.6369 10.3502 12.5657 10.3502C12.9112 10.3502 13.2299 10.4565 13.4954 10.6363C13.5361 10.6639 13.5825 10.6104 13.5484 10.575C13.1515 10.1624 12.5898 9.91068 11.9671 9.93191C10.8971 9.96843 10.0113 10.8263 9.94291 11.8947C9.86459 13.1185 10.8336 14.1355 12.0401 14.1355C12.6344 14.1355 13.1685 13.887 13.5499 13.4898C13.5836 13.4547 13.5371 13.402 13.4969 13.4293C13.231 13.6097 12.9118 13.7161 12.5657 13.7161Z" fill="#F5F5F5"/>
<path d="M14.0382 10.9972L14.2127 11.4879L14.6831 11.2643C14.7185 11.2475 14.7555 11.2844 14.7387 11.3199L14.515 11.7903L15.0057 11.9648C15.0427 11.9779 15.0427 12.0302 15.0057 12.0433L14.515 12.2179L14.7387 12.6882C14.7555 12.7237 14.7185 12.7607 14.6831 12.7438L14.2127 12.5202L14.0382 13.0109C14.0251 13.0479 13.9728 13.0479 13.9596 13.0109L13.7851 12.5202L13.3147 12.7438C13.2793 12.7607 13.2423 12.7237 13.2592 12.6883L13.4828 12.2179L12.9921 12.0434C12.9551 12.0303 12.9551 11.978 12.9921 11.9648L13.4828 11.7903L13.2592 11.3199C13.2423 11.2845 13.2793 11.2475 13.3147 11.2644L13.7851 11.488L13.9596 10.9973C13.9728 10.9603 14.0251 10.9603 14.0382 10.9972Z" fill="#F5F5F5"/>
</svg>
