<svg width="50" height="50" viewBox="0 0 50 50" fill="none" xmlns="http://www.w3.org/2000/svg">
<g clip-path="url(#clip0)">
<path d="M44.0912 18.5995C44.8523 17.2416 44.5853 15.5556 43.4418 14.4994C42.9627 14.0568 42.7442 13.3846 42.8718 12.7451C43.1761 11.2185 42.4011 9.69751 40.9872 9.04633C40.3948 8.77358 39.9794 8.2017 39.903 7.55405C39.7206 6.00815 38.5136 4.80102 36.9677 4.6188C36.32 4.54243 35.7482 4.1269 35.4754 3.53452C34.8242 2.12065 33.303 1.34585 31.7768 1.64995C31.137 1.77749 30.4649 1.55893 30.0225 1.07993C28.9663 -0.0635285 27.2801 -0.330423 25.9224 0.430514C25.3534 0.749362 24.6467 0.74946 24.0778 0.430514C22.7199 -0.330423 21.0341 -0.0635285 19.9777 1.07993C19.5353 1.55893 18.8631 1.77778 18.2234 1.64995C16.6968 1.34594 15.176 2.12065 14.5247 3.53452C14.252 4.1269 13.6801 4.54233 13.0325 4.6187C11.4866 4.80102 10.2795 6.00805 10.0972 7.55405C10.0208 8.2017 9.60527 8.77348 9.01299 9.04624C7.59912 9.69741 6.82402 11.2184 7.12842 12.745C7.25596 13.3846 7.0375 14.0568 6.5584 14.4993C5.41494 15.5554 5.14785 17.2415 5.90898 18.5994C6.22793 19.1683 6.22793 19.8749 5.90898 20.4439C5.14785 21.8018 5.41484 23.4877 6.5584 24.544C7.0375 24.9866 7.25596 25.6586 7.12842 26.2982C6.82412 27.8248 7.59912 29.3457 9.01299 29.9969C9.60537 30.2698 10.0208 30.8416 10.0972 31.4893C10.2488 32.7747 11.1094 33.8254 12.2839 34.248L7.12051 44.8259C7.00674 45.0588 7.02471 45.3345 7.16748 45.5508C7.31025 45.7671 7.55615 45.8935 7.81562 45.8787L12.7702 45.6281L15.6208 49.6884C15.7586 49.8846 15.9828 49.9999 16.2201 49.9999C16.2394 49.9999 16.2587 49.9992 16.278 49.9977C16.5364 49.9773 16.7647 49.8217 16.8784 49.5888L22.0373 39.0195C22.7234 39.1022 23.4371 38.9722 24.0777 38.613C24.6466 38.2942 25.3532 38.2941 25.9223 38.613C26.4394 38.9029 27.004 39.0437 27.5635 39.0436C27.7103 39.0436 27.8566 39.0329 28.0018 39.0136L33.1636 49.5888C33.2772 49.8217 33.5056 49.9773 33.764 49.9977C33.7833 49.9993 33.8026 49.9999 33.8219 49.9999C34.0592 49.9999 34.2834 49.8846 34.4212 49.6884L37.2718 45.6281L42.2264 45.8787C42.4844 45.8921 42.7317 45.767 42.8745 45.5508C43.0174 45.3345 43.0352 45.0588 42.9215 44.8259L37.7519 34.2349C38.9081 33.804 39.7528 32.7618 39.9029 31.4892C39.9793 30.8415 40.3948 30.2698 40.9871 29.9969C42.401 29.3457 43.1761 27.8248 42.8717 26.2982C42.7441 25.6585 42.9626 24.9865 43.4417 24.5439C44.5851 23.4877 44.8522 21.8016 44.0911 20.4438C43.7723 19.8751 43.7723 19.1683 44.0912 18.5995ZM16.1064 47.8308L13.7366 44.4553C13.592 44.2494 13.3523 44.1312 13.1002 44.1447L8.98125 44.3531L13.7191 34.6463C14.0679 34.8388 14.3544 35.1394 14.5246 35.5089C14.8726 36.2646 15.4691 36.8373 16.182 37.1608L14.6159 40.3693C14.4385 40.7328 14.5894 41.1712 14.9528 41.3487C15.0562 41.3992 15.1657 41.4231 15.2735 41.4231C15.5446 41.4231 15.8053 41.2719 15.9323 41.0118L17.6673 37.4572C17.8516 37.4513 18.0374 37.4306 18.2233 37.3936C18.8631 37.2659 19.5352 37.4845 19.9776 37.9636C20.1805 38.1832 20.4067 38.3703 20.6493 38.5241L16.1064 47.8308ZM41.0606 44.3531L36.9416 44.1448C36.6898 44.1307 36.4498 44.2494 36.3052 44.4554L33.9353 47.8309L29.3823 38.503C29.6128 38.3531 29.8283 38.1735 30.0223 37.9635C30.4647 37.4844 31.1369 37.2661 31.7766 37.3935C31.9769 37.4334 32.177 37.4542 32.3752 37.458L34.1098 41.0118C34.2367 41.2718 34.4973 41.423 34.7685 41.423C34.8763 41.423 34.9858 41.3991 35.0893 41.3486C35.4527 41.1711 35.6036 40.7327 35.4262 40.3692L33.8523 37.1448C34.55 36.8186 35.133 36.2522 35.4755 35.5088C35.6511 35.1276 35.9508 34.8204 36.3145 34.6289L41.0606 44.3531ZM42.448 23.468C41.5969 24.2541 41.209 25.4484 41.4354 26.5846C41.6067 27.444 41.1705 28.3 40.3747 28.6665C39.3224 29.1512 38.5843 30.167 38.4485 31.3177C38.3459 32.1879 37.6664 32.8673 36.7963 32.97C35.6457 33.1057 34.6298 33.8438 34.1451 34.8961C33.7786 35.692 32.9225 36.1285 32.0631 35.9569C30.927 35.7306 29.7325 36.1184 28.9465 36.9696C28.3519 37.6133 27.4029 37.7636 26.6386 37.3352C26.1331 37.0519 25.5667 36.9102 25.0001 36.9102C24.4336 36.9102 23.8669 37.0519 23.3616 37.3351C22.5973 37.7635 21.6482 37.6132 21.0537 36.9696C20.2676 36.1185 19.0732 35.7305 17.9371 35.9569C17.0778 36.1283 16.2217 35.6919 15.8552 34.8961C15.3705 33.8438 14.3547 33.1057 13.204 32.97C12.3338 32.8673 11.6544 32.1878 11.5518 31.3177C11.416 30.1671 10.6779 29.1512 9.62559 28.6664C8.82969 28.2999 8.39355 27.4439 8.56484 26.5845C8.79131 25.4483 8.40332 24.254 7.55225 23.4679C6.90859 22.8734 6.7582 21.9244 7.18662 21.16C7.75322 20.1494 7.75322 18.8937 7.18662 17.883C6.75811 17.1186 6.9085 16.1697 7.55215 15.575C8.40332 14.7889 8.79121 13.5947 8.56484 12.4584C8.39355 11.5992 8.82978 10.743 9.62559 10.3765C10.6779 9.89184 11.416 8.87602 11.5518 7.72534C11.6544 6.85503 12.3339 6.17573 13.204 6.07309C14.3546 5.93735 15.3706 5.19926 15.8552 4.14692C16.2217 3.35102 17.0776 2.91489 17.9372 3.08618C19.0739 3.31274 20.2677 2.92456 21.0538 2.07348C21.6483 1.42983 22.5975 1.27934 23.3617 1.70796C24.3724 2.27446 25.628 2.27446 26.6387 1.70796C27.403 1.27934 28.3519 1.42973 28.9466 2.07348C29.7327 2.92456 30.9268 3.31264 32.0632 3.08618C32.9228 2.91469 33.7785 3.35122 34.1451 4.14692C34.6298 5.19926 35.6456 5.93735 36.7963 6.07309C37.6665 6.17573 38.3459 6.85522 38.4485 7.72534C38.5843 8.87592 39.3224 9.89194 40.3747 10.3765C41.1706 10.743 41.6067 11.5992 41.4354 12.4584C41.209 13.5947 41.597 14.7889 42.4481 15.575C43.0918 16.1696 43.2422 17.1186 42.8138 17.883C42.2472 18.8939 42.2472 20.1496 42.8138 21.1601C43.242 21.9245 43.0916 22.8735 42.448 23.468Z" fill="#67CC8C"/>
<path d="M36.6914 16.391C36.6914 15.1236 35.6605 14.0928 34.3934 14.0928H29.4062C29.8271 13.3058 30.3739 12.157 30.8233 10.7893C31.1666 9.7453 30.5898 8.61043 29.5381 8.25985L29.493 8.24481C28.5291 7.92323 27.4688 8.3787 27.0265 9.30389C26.3798 10.6575 24.9401 13.0577 22.5066 14.0929H22.0288C21.6073 13.6135 20.9903 13.31 20.3033 13.31H17.1723C15.9052 13.31 14.8743 14.3409 14.8743 15.608V26.567C14.8743 27.8341 15.9052 28.8649 17.1723 28.8649H20.3033C20.9903 28.8649 21.6073 28.5615 22.0288 28.0821H32.0451C33.3122 28.0821 34.3431 27.0513 34.3431 25.7842C34.3431 25.3576 34.2263 24.9578 34.0229 24.6152C34.6839 24.2112 35.1258 23.4828 35.1258 22.6531C35.1258 22.2265 35.009 21.8267 34.8057 21.4842C35.4666 21.0802 35.9085 20.3517 35.9085 19.5221C35.9085 19.0955 35.7917 18.6957 35.5884 18.3531C36.2494 17.9491 36.6914 17.2206 36.6914 16.391ZM34.3934 17.2238H32.045C31.6405 17.2238 31.3126 17.5517 31.3126 17.9562C31.3126 18.3607 31.6405 18.6887 32.045 18.6887H33.6105C34.07 18.6887 34.4438 19.0625 34.4438 19.5219C34.4438 19.9812 34.0699 20.3551 33.6105 20.3551H31.2622C30.8577 20.3551 30.5298 20.683 30.5298 21.0875C30.5298 21.492 30.8577 21.8199 31.2622 21.8199H32.8277C33.2872 21.8199 33.6609 22.1937 33.6609 22.6531C33.6609 23.1125 33.2871 23.4863 32.8277 23.4863H30.4795C30.075 23.4863 29.7471 23.8142 29.7471 24.2187C29.7471 24.6232 30.075 24.9512 30.4795 24.9512H32.045C32.5045 24.9512 32.8782 25.325 32.8782 25.7844C32.8782 26.2437 32.5044 26.6176 32.045 26.6176H22.6013V19.5222C22.6013 19.1177 22.2733 18.7897 21.8688 18.7897C21.4644 18.7897 21.1364 19.1177 21.1364 19.5222V26.5672C21.1364 27.0266 20.7626 27.4004 20.3032 27.4004H17.1722C16.7127 27.4004 16.339 27.0265 16.339 26.5672V15.6079C16.339 15.1484 16.7128 14.7747 17.1722 14.7747H20.3032C20.7627 14.7747 21.1364 15.1485 21.1364 15.6079V16.3906C21.1364 16.7951 21.4644 17.123 21.8688 17.123C22.2733 17.123 22.6013 16.7951 22.6013 16.3906V15.5575H22.6517C22.7448 15.5575 22.8371 15.5397 22.9237 15.5051C25.8963 14.316 27.5983 11.505 28.3481 9.93524C28.4723 9.67538 28.7655 9.54637 29.0295 9.63417L29.0747 9.6493C29.3638 9.74559 29.524 10.0518 29.4319 10.332C28.6528 12.7025 27.5328 14.4025 27.5219 14.4189C27.372 14.6436 27.3581 14.9326 27.4854 15.1708C27.6129 15.4089 27.8611 15.5576 28.1313 15.5576H34.3936C34.853 15.5576 35.2268 15.9314 35.2268 16.3908C35.2268 16.8502 34.8528 17.2238 34.3934 17.2238Z" fill="#67CC8C"/>
<path d="M18.75 25.7339C19.1545 25.7339 19.4824 25.406 19.4824 25.0015C19.4824 24.597 19.1545 24.269 18.75 24.269C18.3455 24.269 18.0176 24.597 18.0176 25.0015C18.0176 25.406 18.3455 25.7339 18.75 25.7339Z" fill="#67CC8C"/>
</g>
<defs>
<clipPath id="clip0">
<rect width="50" height="50" fill="white"/>
</clipPath>
</defs>
</svg>
