<svg width="32" height="32" viewBox="0 0 32 32" fill="none" xmlns="http://www.w3.org/2000/svg">
<path d="M29.6 0.799988H2.4C1.06669 0.799988 0 1.86668 0 3.19999V20.5333V22.9333C0 24.2666 1.06669 25.3333 2.4 25.3333H11.9098C11.9854 26.2616 11.5666 27.1712 10.8266 27.68L9.86662 28.3733C9.78938 28.4197 9.726 28.4797 9.67688 28.5478C9.02319 28.6377 8.53325 29.1847 8.53325 29.8667C8.53325 30.6134 9.11994 31.2 9.86656 31.2H22.1332C22.8799 31.2 23.4666 30.6133 23.4666 29.8667C23.4666 29.1529 22.9301 28.5868 22.2306 28.5381C22.1891 28.4741 22.1388 28.4175 22.0799 28.3734L21.1199 27.6801C20.3663 27.162 19.9878 26.2696 20.0564 25.3334H29.6C30.9333 25.3334 32 24.2667 32 22.9334V20.5334V3.19999C32 1.86668 30.9333 0.799988 29.6 0.799988ZM1.06669 3.19999C1.06669 2.4533 1.65338 1.86668 2.4 1.86668H29.6C30.3467 1.86668 30.9333 2.45336 30.9333 3.19999V19.4667H1.06669V3.19999ZM22.1333 30.1333H9.86669C9.70669 30.1333 9.6 30.0266 9.6 29.8666C9.6 29.7066 9.70669 29.5999 9.86669 29.5999H10.24H21.76H22.1333C22.2933 29.5999 22.4 29.7066 22.4 29.8666C22.4 30.0266 22.2933 30.1333 22.1333 30.1333ZM20.4267 28.5333H11.52C12.5333 27.7866 13.0667 26.56 13.0133 25.3333H18.9866C18.88 26.56 19.4667 27.7867 20.4267 28.5333ZM30.9333 22.9333C30.9333 23.68 30.3466 24.2666 29.6 24.2666H20.48H11.68H2.4C1.65331 24.2666 1.06669 23.6799 1.06669 22.9333V20.5333H30.9334V22.9333H30.9333Z" fill="#010101"/>
<path d="M14.4004 9.33334H12.0766L10.6137 5.92003C10.507 5.65334 10.187 5.54672 9.92038 5.65334C9.65376 5.75997 9.54707 6.08003 9.6537 6.34666L10.9337 9.33334H6.1337L7.4137 6.34666C7.52038 6.07997 7.4137 5.75997 7.14701 5.65334C6.88032 5.54672 6.56032 5.65334 6.4537 5.92003L4.99082 9.33334H2.66707C2.50707 9.33334 2.34707 9.44003 2.24038 9.54666C2.1337 9.70666 2.08038 9.86666 2.18707 10.0267L4.32038 16.4267C4.3737 16.64 4.58707 16.8 4.80038 16.8H12.2671C12.4804 16.8 12.6938 16.64 12.7471 16.4267L14.8804 10.0267C14.9337 9.86666 14.9337 9.70666 14.8271 9.54666C14.7204 9.44003 14.5604 9.33334 14.4004 9.33334ZM11.8937 15.7333H5.1737L3.4137 10.4H13.6537L11.8937 15.7333Z" fill="#67CC8C"/>
<path d="M16.5333 6.66672H21.8666C22.1866 6.66672 22.3999 6.45341 22.3999 6.13341C22.3999 5.81341 22.1866 5.6001 21.8666 5.6001H16.5333C16.2133 5.6001 16 5.81341 16 6.13341C16 6.45335 16.2133 6.66672 16.5333 6.66672Z" fill="#010101"/>
<path d="M24.0001 6.66672H26.1334C26.4534 6.66672 26.6667 6.45341 26.6667 6.13341C26.6667 5.81341 26.4534 5.6001 26.1334 5.6001H24.0001C23.6801 5.6001 23.4668 5.81341 23.4668 6.13341C23.4668 6.45335 23.6801 6.66672 24.0001 6.66672Z" fill="#010101"/>
<path d="M29.3334 5.59998H28.2667C27.9467 5.59998 27.7334 5.81329 27.7334 6.13329C27.7334 6.45329 27.9467 6.6666 28.2667 6.6666H29.3334C29.6534 6.6666 29.8667 6.45329 29.8667 6.13329C29.8668 5.81329 29.6534 5.59998 29.3334 5.59998Z" fill="#010101"/>
<path d="M16.5333 13.6H21.8666C22.1866 13.6 22.3999 13.3866 22.3999 13.0666C22.3999 12.7466 22.1866 12.5333 21.8666 12.5333H16.5333C16.2133 12.5333 16 12.7466 16 13.0666C16 13.3866 16.2133 13.6 16.5333 13.6Z" fill="#010101"/>
<path d="M26.6668 13.0666C26.6668 12.7466 26.4535 12.5333 26.1335 12.5333H24.0001C23.6801 12.5333 23.4668 12.7466 23.4668 13.0666C23.4668 13.3866 23.6801 13.6 24.0001 13.6H26.1334C26.4534 13.6 26.6668 13.3866 26.6668 13.0666Z" fill="#010101"/>
<path d="M29.3334 12.5333H28.2667C27.9467 12.5333 27.7334 12.7466 27.7334 13.0666C27.7334 13.3866 27.9467 13.5999 28.2667 13.5999H29.3334C29.6534 13.5999 29.8667 13.3866 29.8667 13.0666C29.8667 12.7466 29.6534 12.5333 29.3334 12.5333Z" fill="#010101"/>
<path d="M29.333 15.7333H25.5997C25.2797 15.7333 25.0664 15.9466 25.0664 16.2666C25.0664 16.5867 25.2797 16.8 25.5997 16.8H29.333C29.653 16.8 29.8663 16.5867 29.8663 16.2666C29.8664 15.9467 29.653 15.7333 29.333 15.7333Z" fill="#010101"/>
<path d="M23.4667 15.7333H20.2667C19.9467 15.7333 19.7334 15.9466 19.7334 16.2666C19.7334 16.5867 19.9467 16.8 20.2667 16.8H23.4667C23.7867 16.8 24 16.5867 24 16.2666C24 15.9467 23.7867 15.7333 23.4667 15.7333Z" fill="#010101"/>
<path d="M18.1333 15.7333H16.5333C16.2133 15.7333 16 15.9466 16 16.2666C16 16.5867 16.2133 16.8 16.5333 16.8H18.1333C18.4533 16.8 18.6666 16.5867 18.6666 16.2666C18.6667 15.9467 18.4533 15.7333 18.1333 15.7333Z" fill="#010101"/>
<path d="M29.333 9.33325H25.5997C25.2797 9.33325 25.0664 9.54656 25.0664 9.86656C25.0664 10.1866 25.2797 10.3999 25.5997 10.3999H29.333C29.653 10.3999 29.8663 10.1866 29.8663 9.86656C29.8664 9.54663 29.653 9.33325 29.333 9.33325Z" fill="#010101"/>
<path d="M19.7334 9.86669C19.7334 10.1867 19.9467 10.4 20.2667 10.4H23.4667C23.7867 10.4 24 10.1867 24 9.86669C24 9.54669 23.7867 9.33337 23.4667 9.33337H20.2667C19.9468 9.33331 19.7334 9.54669 19.7334 9.86669Z" fill="#010101"/>
<path d="M16.5333 10.4H18.1333C18.4533 10.4 18.6666 10.1867 18.6666 9.86669C18.6666 9.54669 18.4533 9.33337 18.1333 9.33337H16.5333C16.2133 9.33337 16 9.54669 16 9.86669C16 10.1867 16.2133 10.4 16.5333 10.4Z" fill="#010101"/>
</svg>
