<svg width="50" height="50" viewBox="0 0 50 50" fill="none" xmlns="http://www.w3.org/2000/svg">
<g clip-path="url(#clip0)">
<mask id="mask0" mask-type="alpha" maskUnits="userSpaceOnUse" x="-6" y="-6" width="50" height="50">
<rect x="-6" y="-6" width="50" height="50" fill="#C4C4C4"/>
</mask>
<g mask="url(#mask0)">
<path d="M42.3182 25.6552V20.4549C42.3182 18.6915 40.9504 17.2575 39.2223 17.1184L34.3928 8.68318C33.9453 7.90304 33.2226 7.34545 32.3579 7.11391C31.4972 6.88395 30.5972 7.00472 29.8269 7.45305L13.2713 17.0913H10.3637C8.50859 17.0913 7 18.5998 7 20.4549V40.6364C7 42.4914 8.50851 44 10.3637 44H38.9546C40.8096 44 42.3182 42.4915 42.3182 40.6364V35.4361C43.2949 35.0878 44 34.1632 44 33.0683V28.023C44 26.9281 43.2949 26.0035 42.3182 25.6552ZM37.268 17.0913H29.9387L35.4357 13.8909L37.268 17.0913ZM34.6002 12.4315L26.5961 17.0913H23.2761L33.77 10.9817L34.6002 12.4315ZM30.6736 8.90652C31.0538 8.68397 31.498 8.62484 31.9226 8.7382C32.3521 8.85314 32.7102 9.13072 32.9327 9.51913L32.9345 9.52221L19.9338 17.0913H16.6139L30.6736 8.90652ZM40.6363 40.6364C40.6363 41.5635 39.8817 42.3182 38.9546 42.3182H10.3637C9.43656 42.3182 8.68187 41.5635 8.68187 40.6364V20.4549C8.68187 19.5278 9.43656 18.7731 10.3637 18.7731H38.9546C39.8817 18.7731 40.6363 19.5278 40.6363 20.4549V25.5003H35.5909C32.8086 25.5003 30.5454 27.7634 30.5454 30.5456C30.5454 33.3279 32.8086 35.591 35.5909 35.591H40.6363V40.6364V40.6364ZM42.3182 33.0683C42.3182 33.5323 41.9413 33.9093 41.4773 33.9093H35.5909C33.7358 33.9093 32.2272 32.4008 32.2272 30.5456C32.2272 28.6906 33.7357 27.182 35.5909 27.182H41.4773C41.9412 27.182 42.3182 27.5589 42.3182 28.023V33.0683V33.0683Z" fill="#67CC8C"/>
<path d="M35.5912 28.8643C34.6641 28.8643 33.9094 29.6189 33.9094 30.546C33.9094 31.4731 34.6641 32.2278 35.5912 32.2278C36.5183 32.2278 37.273 31.4731 37.273 30.546C37.2731 29.6189 36.5184 28.8643 35.5912 28.8643Z" fill="#67CC8C"/>
</g>
</g>
<defs>
<clipPath id="clip0">
<rect width="50" height="50" fill="white"/>
</clipPath>
</defs>
</svg>
