<svg width="111" height="111" viewBox="0 0 111 111" fill="none" xmlns="http://www.w3.org/2000/svg">
<!--<g clip-path="url(#clip0)">-->
<path d="M51.2952 46.2227C50.7142 46.2227 50.2432 46.6938 50.2432 47.2747V49.1158C50.2432 49.6967 50.7142 50.1678 51.2952 50.1678C51.8761 50.1678 52.3472 49.6967 52.3472 49.1158V47.2747C52.3472 46.6938 51.8761 46.2227 51.2952 46.2227Z" fill="#67CC8C"/>
<path d="M57.8704 50.1678C58.4513 50.1678 58.9224 49.6967 58.9224 49.1158V47.2747C58.9224 46.6938 58.4513 46.2227 57.8704 46.2227C57.2894 46.2227 56.8184 46.6938 56.8184 47.2747V49.1158C56.8184 49.6967 57.2894 50.1678 57.8704 50.1678Z" fill="#67CC8C"/>
<path d="M52.8164 55.222C52.4056 54.8113 51.7395 54.8113 51.3287 55.222C50.9178 55.6329 50.9178 56.2989 51.3287 56.7098C53.123 58.5041 56.0432 58.5044 57.8377 56.7098C58.2486 56.2989 58.2486 55.6329 57.8377 55.222C57.4268 54.8113 56.7609 54.8113 56.3499 55.222C55.3755 56.1962 53.7905 56.1962 52.8164 55.222Z" fill="#67CC8C"/>
<path d="M70.3815 71.3569C66.2432 69.9218 64.7006 69.3941 64.7137 69.3986C63.4639 68.9669 62.3776 68.1266 61.645 67.0271C61.3022 66.3741 60.4125 66.2699 59.9308 66.8099C59.6083 67.1713 61.2422 65.3439 55.9637 71.2437H53.2032L51.7308 69.5981C51.3435 69.165 50.6785 69.1281 50.2453 69.5155C49.8124 69.9029 49.7754 70.568 50.1629 71.0009L51.6103 72.6186L49.3385 85.8901C49.2404 86.4627 49.6253 87.0064 50.198 87.1045C50.7704 87.2022 51.3143 86.8176 51.4124 86.245L53.6202 73.3477H55.5468L57.7546 86.245C57.8424 86.7576 58.2873 87.1196 58.7903 87.1196C59.4467 87.1196 59.938 86.5295 59.8286 85.89L58.0268 75.3644L60.9427 78.2657C61.5235 78.844 62.5129 78.563 62.7066 77.7695L63.5238 74.423C63.6616 73.8586 63.3157 73.2893 62.7513 73.1515C62.1875 73.0133 61.6178 73.3595 61.4798 73.9239L61.1049 75.4592L57.8833 72.2537L60.6506 69.161C61.5682 70.1676 62.7324 70.9402 64.0268 71.3874L69.6854 73.3424C72.1276 74.1882 73.7674 76.4936 73.7657 79.081V86.0804C73.7657 86.6614 74.2367 87.1324 74.8177 87.1324C75.3987 87.1324 75.8697 86.6614 75.8697 86.0804V79.0816C75.8718 75.6008 73.6675 72.4965 70.3815 71.3569Z" fill="#67CC8C"/>
<path d="M46.8592 70.5355C48.7693 69.3153 50.0964 67.3437 50.5014 65.1002C58.3444 67.4777 66.5206 62.6438 68.3079 54.7337C68.823 55.0846 69.4239 55.3179 70.0716 55.3969C69.5855 58.0073 68.4617 60.4576 66.7821 62.5441C66.4177 62.9966 66.4893 63.659 66.9419 64.0232C67.3973 64.3898 68.0591 64.313 68.421 63.8634C70.4767 61.3098 71.7975 58.274 72.2627 55.0474C73.6252 54.4058 74.5709 53.02 74.5709 51.417V47.209C74.5709 46.628 74.0999 46.157 73.5189 46.157C72.938 46.157 72.4669 46.628 72.4669 47.209V51.417C72.4669 52.4684 71.6115 53.3238 70.5602 53.3238C69.5088 53.3238 68.6534 52.4684 68.6534 51.417C68.6534 43.6262 68.6761 44.1541 68.6016 43.9249C68.4447 43.444 67.9717 43.1473 67.4769 43.2062C60.1287 44.1312 53.381 42.1555 47.9903 38.0236C47.4305 37.5947 46.6154 37.8277 46.3662 38.4865C45.476 40.8405 43.621 42.5725 41.2768 43.2383C40.8244 43.3668 40.5122 43.78 40.5122 44.2502V49.9086C39.8138 49.5439 39.337 48.8224 39.3375 47.9825V35.1671C39.3384 33.7873 40.4589 32.6702 41.8398 32.6702C42.2835 32.6702 42.6628 32.3988 42.8187 32.0096C44.2567 28.4213 47.6837 26.104 51.552 26.104H60.4479C65.6456 26.1072 69.849 30.3185 69.8458 35.5209V39.1981C69.8458 39.7791 70.3169 40.2501 70.8979 40.2501C71.4788 40.2501 71.9499 39.7791 71.9499 39.1981V35.5216C71.9538 29.1596 66.8125 24.0039 60.4484 24H51.5512C47.0408 24 43.0193 26.5769 41.1288 30.6204C38.9659 30.9538 37.2351 32.8261 37.2335 35.1664V47.9818C37.2322 50.0209 38.6549 51.6959 40.5239 52.1433C40.6423 55.4037 41.884 58.5195 44.055 60.9661C44.4407 61.4007 45.1055 61.4404 45.54 61.0547C45.9746 60.6692 46.0143 60.0043 45.6286 59.5697C43.6861 57.3804 42.6162 54.5609 42.6162 51.6307V45.0108C44.8295 44.1805 46.64 42.5812 47.7717 40.4696C53.2688 44.2995 59.8501 46.0374 66.5494 45.4262V51.6307C66.5494 60.1339 57.8668 65.9521 50.0016 62.6887C49.2977 62.3809 48.5193 62.9099 48.5284 63.6654C48.521 66.2476 46.8776 68.5454 44.4353 69.3858C37.1551 71.8909 39.1003 71.2121 38.7653 71.3369C35.5036 72.5526 33.2648 75.5748 33.2627 79.0553V86.0547C33.2627 86.6357 33.7337 87.1067 34.3147 87.1067C34.8957 87.1067 35.3667 86.6357 35.3667 86.0547V79.056C35.3683 76.5606 36.9013 74.2106 39.4755 73.3174C39.9465 73.154 37.6139 73.9581 44.9156 71.4456L46.4599 77.7694C46.5772 78.25 47.0073 78.5721 47.481 78.5721C48.1625 78.5721 48.6658 77.9334 48.5038 77.2704L46.8592 70.5355Z" fill="#67CC8C"/>
<path d="M67.7331 81.5965H64.051C63.4701 81.5965 62.999 82.0675 62.999 82.6485C62.999 83.2294 63.4701 83.7005 64.051 83.7005H67.7331C68.314 83.7005 68.7851 83.2294 68.7851 82.6485C68.7851 82.0675 68.314 81.5965 67.7331 81.5965Z" fill="#67CC8C"/>
<!--</g>-->
<path d="M33.5285 8.51042C39.0964 5.90562 45.225 4.25391 51.7208 3.77926C80.2854 1.69203 105.134 23.1562 107.221 51.7207C109.308 80.2853 87.8439 105.134 59.2793 107.221C30.7148 109.308 5.86656 87.8438 3.77934 59.2793C3.17477 51.0055 4.5461 43.0436 7.49357 35.8562M22.7216 15.3086C20.6011 17.0411 18.6231 18.9364 16.8055 20.9739" stroke="#67CC8C" stroke-width="2.3" stroke-linecap="round" stroke-linejoin="round"/>
<defs>
<!--<clipPath id="clip0">-->
<!--<rect width="63.1323" height="63.1323" fill="white" transform="translate(23 24)"/>-->
<!--</clipPath>-->
</defs>
</svg>
