<svg width="138" height="16" viewBox="0 0 138 16" fill="none" xmlns="http://www.w3.org/2000/svg">
<path d="M0.865136 15.6757H2.98472C3.63357 15.6757 3.84986 15.4378 3.84986 14.7892V10.8541H6.14247C9.3651 10.8541 11.3982 8.92973 11.3982 5.6C11.3982 2.27027 9.32184 0.324324 6.12084 0.324324H0.865136C0.237912 0.324324 0 0.562161 0 1.21081V14.7892C0 15.4378 0.237912 15.6757 0.865136 15.6757ZM5.8613 7.39459H3.84986V3.78378H5.8613C6.94272 3.78378 7.54831 4.51892 7.54831 5.6C7.54831 6.7027 6.92109 7.39459 5.8613 7.39459Z" fill="#909090"/>
<path d="M16.9859 15.6757H19.1055C19.7543 15.6757 19.9706 15.4378 19.9706 14.7892V10.3351H20.5978C21.4413 10.3351 21.7009 10.6595 22.1118 11.5892L23.4744 14.7459C23.7772 15.4595 24.08 15.6757 25.1182 15.6757H27.2378C27.9082 15.6757 28.0164 15.2432 27.7568 14.7027L25.767 10.5514C25.6156 10.227 25.3993 9.83784 25.1398 9.55676C26.6322 8.8 27.5189 7.52432 27.5189 5.38378C27.5189 2.14054 25.4859 0.324324 22.3714 0.324324H16.9859C16.3587 0.324324 16.1208 0.562161 16.1208 1.21081V14.7892C16.1208 15.4378 16.3587 15.6757 16.9859 15.6757ZM22.1118 7.04865H19.9706V3.78378H22.1118C23.0851 3.78378 23.6691 4.38919 23.6691 5.38378C23.6691 6.44324 23.0851 7.04865 22.1118 7.04865Z" fill="#909090"/>
<path d="M38.3105 16C42.2252 16 44.4097 13.7297 44.4097 10.0757V5.92432C44.4097 2.27027 42.2252 0 38.3105 0C34.3957 0 32.2113 2.27027 32.2113 5.92432V10.0757C32.2113 13.7297 34.3957 16 38.3105 16ZM38.3105 12.5405C36.8398 12.5405 36.0611 11.7405 36.0611 10.2054V5.79459C36.0611 4.25946 36.8398 3.45946 38.3105 3.45946C39.7812 3.45946 40.5598 4.25946 40.5598 5.79459V10.2054C40.5598 11.7405 39.7812 12.5405 38.3105 12.5405Z" fill="#909090"/>
<path d="M48.3084 15.6757H50.6659C51.7689 15.6757 51.9203 15.5892 52.2447 14.8757L54.2129 10.7459L56.2244 14.8757C56.5921 15.6108 56.7651 15.6757 57.8032 15.6757H60.2473C60.8745 15.6757 60.9826 15.2649 60.7015 14.7892L56.6137 7.80541L60.4852 1.16757C60.7447 0.713513 60.6582 0.324324 60.0742 0.324324H57.6086C56.7218 0.324324 56.4839 0.389189 56.1595 1.08108L54.2562 4.92973L52.3745 1.08108C52.0501 0.389189 51.8338 0.324324 50.8173 0.324324H48.4814C47.9191 0.324324 47.8109 0.691892 48.0705 1.16757L51.8987 7.82703L47.8758 14.7892C47.573 15.3081 47.7028 15.6757 48.3084 15.6757Z" fill="#909090"/>
<path d="M66.0019 15.6757H68.208C68.7704 15.6757 69.0299 15.5027 69.0299 14.8541V1.14595C69.0299 0.497297 68.792 0.324324 68.2297 0.324324H66.0019C65.4396 0.324324 65.1801 0.497297 65.1801 1.14595V14.8541C65.1801 15.5027 65.4396 15.6757 66.0019 15.6757Z" fill="#909090"/>
<path d="M75.3221 15.6757H77.2903C77.9175 15.6757 78.1122 15.4595 78.1122 14.7892V10.7892C78.1122 9.34054 78.0905 8.10811 77.4417 5.47027H77.6363C78.0256 6.87568 78.4582 8.25946 78.9124 9.25406L80.0154 11.827C80.2101 12.3027 80.448 12.4541 80.9671 12.4541H82.3081C82.8704 12.4541 83.065 12.2595 83.2597 11.827L84.3411 9.25406C84.7953 8.21622 85.3144 6.76757 85.7037 5.47027H85.8984C85.1414 8.02162 85.1846 9.4054 85.1846 10.7676V14.7892C85.1846 15.4595 85.4009 15.6757 86.0498 15.6757H88.0828C88.7317 15.6757 88.9264 15.4595 88.9264 14.7892V1.21081C88.9264 0.54054 88.7317 0.324324 88.0828 0.324324H86.0065C85.3577 0.324324 85.163 0.410811 84.9035 1.01622L81.6592 8.28108L78.4582 0.994595C78.2203 0.432432 77.9824 0.324324 77.2903 0.324324H75.3221C74.7165 0.324324 74.4786 0.54054 74.4786 1.21081V14.7892C74.4786 15.4595 74.7165 15.6757 75.3221 15.6757Z" fill="#909090"/>
<path d="M93.8183 15.6757H95.8297C96.803 15.6757 97.0841 15.4811 97.2572 14.8324L97.7763 12.9946H102.188L102.664 14.8324C102.837 15.4811 103.14 15.6757 104.157 15.6757H106.233C106.839 15.6757 107.012 15.373 106.817 14.8108L102.232 1.01622C102.059 0.475676 101.756 0.324324 101.194 0.324324H98.8793C98.2953 0.324324 98.0358 0.454053 97.8411 1.05946L93.2775 14.8108C93.0829 15.373 93.2127 15.6757 93.8183 15.6757ZM101.345 9.88108H98.663L99.42 6.91892C99.7012 5.83784 99.8526 4.56216 99.9175 3.91351H100.069C100.134 4.56216 100.307 5.81622 100.588 6.91892L101.345 9.88108Z" fill="#909090"/>
<path d="M112.042 15.6757H114.161C114.81 15.6757 115.027 15.4378 115.027 14.7892V10.3351H115.654C116.497 10.3351 116.757 10.6595 117.168 11.5892L118.53 14.7459C118.833 15.4595 119.136 15.6757 120.174 15.6757H122.294C122.964 15.6757 123.072 15.2432 122.813 14.7027L120.823 10.5514C120.672 10.227 120.455 9.83784 120.196 9.55676C121.688 8.8 122.575 7.52432 122.575 5.38378C122.575 2.14054 120.542 0.324324 117.427 0.324324H112.042C111.415 0.324324 111.177 0.562161 111.177 1.21081V14.7892C111.177 15.4378 111.415 15.6757 112.042 15.6757ZM117.168 7.04865H115.027V3.78378H117.168C118.141 3.78378 118.725 4.38919 118.725 5.38378C118.725 6.44324 118.141 7.04865 117.168 7.04865Z" fill="#909090"/>
<path d="M131.187 15.6757H133.307C133.934 15.6757 134.172 15.4595 134.172 14.8108V3.78378H137.135C137.762 3.78378 138 3.54595 138 2.87568V1.21081C138 0.562161 137.762 0.324324 137.135 0.324324H127.38C126.732 0.324324 126.515 0.562161 126.515 1.21081V2.87568C126.515 3.54595 126.732 3.78378 127.38 3.78378H130.322V14.8108C130.322 15.4595 130.56 15.6757 131.187 15.6757Z" fill="#909090"/>
</svg>
