<svg width="20" height="20" viewBox="0 0 20 20" fill="none" xmlns="http://www.w3.org/2000/svg">
<path d="M8.33333 19.0833C9.20778 19.0833 9.91667 18.3744 9.91667 17.5C9.91667 16.6255 9.20778 15.9167 8.33333 15.9167C7.45888 15.9167 6.75 16.6255 6.75 17.5C6.75 18.3744 7.45888 19.0833 8.33333 19.0833Z" stroke="#010101" stroke-width="1.5" stroke-linecap="round" stroke-linejoin="round"/>
<path d="M15.8333 19.0833C16.7078 19.0833 17.4167 18.3744 17.4167 17.5C17.4167 16.6255 16.7078 15.9167 15.8333 15.9167C14.9589 15.9167 14.25 16.6255 14.25 17.5C14.25 18.3744 14.9589 19.0833 15.8333 19.0833Z" stroke="#010101" stroke-width="1.5" stroke-linecap="round" stroke-linejoin="round"/>
<path d="M0.833313 0.833344H4.16665L6.39998 11.9917C6.47618 12.3753 6.6849 12.72 6.9896 12.9653C7.2943 13.2105 7.67556 13.3408 8.06665 13.3333H16.1666C16.5577 13.3408 16.939 13.2105 17.2437 12.9653C17.5484 12.72 17.7571 12.3753 17.8333 11.9917L19.1666 5.00001H4.99998" stroke="#010101" stroke-width="1.5" stroke-linecap="round" stroke-linejoin="round"/>
</svg>
