<svg width="35" height="22" viewBox="0 0 35 22" fill="none" xmlns="http://www.w3.org/2000/svg">
<path fill-rule="evenodd" clip-rule="evenodd" d="M32.75 14.322C33.1642 14.322 33.5 13.9862 33.5 13.572C33.5 13.1578 33.1642 12.822 32.75 12.822C32.3358 12.822 32 13.1578 32 13.572C32 13.9862 32.3358 14.322 32.75 14.322ZM32.75 15.322C33.7165 15.322 34.5 14.5385 34.5 13.572C34.5 12.6055 33.7165 11.822 32.75 11.822C31.7835 11.822 31 12.6055 31 13.572C31 14.5385 31.7835 15.322 32.75 15.322Z" fill="#67CC8C"/>
<path fill-rule="evenodd" clip-rule="evenodd" d="M2.45381 6C2.45381 5.72386 2.67767 5.5 2.95381 5.5H5.73216C6.0083 5.5 6.23216 5.72386 6.23216 6V7.50515H7.47378C7.74993 7.50515 7.97378 7.72901 7.97378 8.00515V9.40848C8.13512 9.08113 8.33978 8.77888 8.58926 8.50363C9.32041 7.69698 10.2663 7.29479 11.3856 7.29479C11.9814 7.29479 12.5207 7.41779 12.9901 7.67114C13.0817 7.56924 13.2144 7.50515 13.3622 7.50515H16.1406C16.4168 7.50515 16.6406 7.72901 16.6406 8.00515V15.1143C16.6406 15.3905 16.4168 15.6143 16.1406 15.6143H13.3622C13.2144 15.6143 13.0816 15.5502 12.9901 15.4483C12.5207 15.7017 11.9814 15.8247 11.3856 15.8247C10.2663 15.8247 9.32039 15.4224 8.58926 14.6158C8.43201 14.4423 8.29253 14.2582 8.17047 14.0641L8.31954 14.6899C8.37212 14.9107 8.26943 15.1392 8.06942 15.2464C7.35413 15.63 6.59598 15.8247 5.80125 15.8247C4.78969 15.8247 3.93829 15.5481 3.32864 14.9239L3.32861 14.9238C2.7261 14.3068 2.45381 13.4738 2.45381 12.4922V10.6926H2C1.72386 10.6926 1.5 10.4688 1.5 10.1926L1.5 8.00515C1.5 7.72901 1.72386 7.50515 2 7.50515H2.45381V6ZM2.5 8.50515V9.69262H2.95381C3.22996 9.69262 3.45381 9.91648 3.45381 10.1926V12.4922C3.45381 13.2866 3.66981 13.8419 4.04406 14.2252C4.4112 14.6011 4.96979 14.8247 5.80125 14.8247C6.30222 14.8247 6.78514 14.7273 7.25337 14.5296L6.97773 13.3723C6.83025 13.4 6.67716 13.4128 6.52006 13.4128C6.183 13.4128 5.83784 13.3304 5.57933 13.0774C5.31886 12.8224 5.23216 12.4785 5.23216 12.1416V10.1926C5.23216 9.91648 5.45602 9.69262 5.73216 9.69262H6.97378V8.50515H5.73216C5.45602 8.50515 5.23216 8.28129 5.23216 8.00515V6.5H3.45381V8.00515C3.45381 8.28129 3.22996 8.50515 2.95381 8.50515H2.5ZM7.55414 12.2668C7.52653 12.0408 7.51287 11.8073 7.51287 11.5667C7.51287 11.2598 7.53476 10.9645 7.57915 10.6815C7.54518 10.6888 7.50993 10.6926 7.47378 10.6926H6.23216V12.1416C6.23216 12.3174 6.27593 12.3599 6.2788 12.3627L6.27887 12.3628C6.28297 12.3668 6.33176 12.4128 6.52006 12.4128C6.77551 12.4128 6.95412 12.3612 7.08086 12.2862C7.21757 12.2053 7.38459 12.1942 7.53082 12.2562C7.5387 12.2596 7.54648 12.2631 7.55414 12.2668ZM13.8622 14.6143V14.5393C13.8622 14.3348 13.7376 14.1509 13.5476 14.075C13.3577 13.9991 13.1407 14.0466 12.9997 14.1949C12.6098 14.6053 12.0891 14.8247 11.3856 14.8247C10.533 14.8247 9.86154 14.5304 9.33019 13.9442C8.79722 13.3562 8.51287 12.5791 8.51287 11.5667C8.51287 10.5437 8.79792 9.76245 9.33019 9.17521C9.86152 8.58903 10.5329 8.29479 11.3856 8.29479C12.0892 8.29479 12.6098 8.51415 12.9998 8.92442C13.1407 9.07268 13.3577 9.12016 13.5477 9.04429C13.7376 8.96842 13.8622 8.7845 13.8622 8.57996V8.50515H15.6406V14.6143H13.8622ZM22.0841 8.29479C21.3588 8.29479 20.834 8.55147 20.4487 9.05297C20.3183 9.22279 20.0941 9.29067 19.8914 9.22178C19.6886 9.15288 19.5522 8.96251 19.5522 8.74836V8.50515H17.7738V14.6143H19.5522V11.5527C19.5522 11.1018 19.6583 10.6838 19.9175 10.3447C20.1897 9.98864 20.5732 9.80476 21.0198 9.80476C21.4108 9.80476 21.7591 9.94948 22.0277 10.2367C22.2985 10.5263 22.4182 10.8914 22.4182 11.2863V14.6143H24.1966V11.5527C24.1966 11.0963 24.3101 10.6745 24.5835 10.3349C24.863 9.98754 25.246 9.80476 25.6917 9.80476C26.0799 9.80476 26.4219 9.95417 26.6835 10.2415L26.6836 10.2416C26.9477 10.5319 27.0626 10.8952 27.0626 11.2863V14.6143H28.841V10.6833C28.841 9.92208 28.6296 9.35372 28.2451 8.93018C27.8638 8.51024 27.3735 8.29479 26.7285 8.29479C25.8702 8.29479 25.2285 8.63438 24.7507 9.33771C24.652 9.48299 24.4843 9.56584 24.309 9.55594C24.1336 9.54605 23.9763 9.44487 23.8945 9.28941C23.7136 8.94514 23.4803 8.70475 23.1978 8.54653C22.9124 8.38664 22.548 8.29479 22.0841 8.29479ZM20.4603 7.71613C20.9272 7.43436 21.473 7.29479 22.0841 7.29479C22.68 7.29479 23.221 7.41331 23.6865 7.67408C23.9479 7.82051 24.1766 8.00684 24.3731 8.22927C24.9931 7.61036 25.7869 7.29479 26.7285 7.29479C27.6316 7.29479 28.3992 7.6122 28.9855 8.25796L28.9855 8.258C29.5685 8.90016 29.841 9.72462 29.841 10.6833V15.1143C29.841 15.3905 29.6171 15.6143 29.341 15.6143H26.5626C26.2865 15.6143 26.0626 15.3905 26.0626 15.1143V11.2863C26.0626 11.0977 26.0118 10.9892 25.9441 10.9148C25.8739 10.8377 25.8014 10.8048 25.6917 10.8048C25.5478 10.8048 25.4516 10.8511 25.3625 10.9618C25.2673 11.0802 25.1966 11.2612 25.1966 11.5527V15.1143C25.1966 15.3905 24.9727 15.6143 24.6966 15.6143H21.9182C21.6421 15.6143 21.4182 15.3905 21.4182 15.1143V11.2863C21.4182 11.1015 21.3673 10.9946 21.2972 10.9196L21.6188 10.6189L21.2972 10.9196C21.225 10.8424 21.1446 10.8048 21.0198 10.8048C20.8764 10.8048 20.79 10.85 20.712 10.952C20.6211 11.0709 20.5522 11.2557 20.5522 11.5527V15.1143C20.5522 15.3905 20.3284 15.6143 20.0522 15.6143H17.2738C16.9977 15.6143 16.7738 15.3905 16.7738 15.1143V8.00515C16.7738 7.72901 16.9977 7.50515 17.2738 7.50515H20.0522C20.2207 7.50515 20.3697 7.58846 20.4603 7.71613ZM10.7632 10.2258C11.0977 9.83332 11.5457 9.63646 12.0629 9.63646C12.5798 9.63646 13.0284 9.83271 13.3702 10.2186L13.3703 10.2186C13.7031 10.5945 13.8622 11.0547 13.8622 11.5667C13.8622 12.0787 13.703 12.5383 13.3676 12.9109L13.3674 12.911C13.0246 13.2915 12.5767 13.4829 12.0629 13.4829C11.5489 13.4829 11.1015 13.2909 10.7659 12.9039L10.7659 12.9038C10.4425 12.5307 10.2912 12.0735 10.2912 11.5667C10.2912 11.0598 10.4425 10.602 10.7632 10.2258ZM12.0629 10.6365C11.8244 10.6365 11.6597 10.7155 11.5242 10.8745C11.375 11.0496 11.2912 11.2697 11.2912 11.5667C11.2912 11.8638 11.3749 12.0797 11.5216 12.2489C11.656 12.4039 11.8213 12.4829 12.0629 12.4829C12.3048 12.4829 12.4788 12.4033 12.6245 12.2416C12.7773 12.0719 12.8622 11.8586 12.8622 11.5667C12.8622 11.2748 12.7772 11.0572 12.6217 10.8817M12.0629 10.6365C12.3017 10.6365 12.475 10.7161 12.6216 10.8816L12.0629 10.6365Z" fill="#67CC8C"/>
<path fill-rule="evenodd" clip-rule="evenodd" d="M33 1L2 1C1.44771 1 1 1.44772 1 2L1 20C1 20.5523 1.44772 21 2 21H33C33.5523 21 34 20.5523 34 20V2C34 1.44772 33.5523 1 33 1ZM2 0C0.895431 0 0 0.89543 0 2L0 20C0 21.1046 0.89543 22 2 22H33C34.1046 22 35 21.1046 35 20V2C35 0.895431 34.1046 0 33 0L2 0Z" fill="#010101"/>
</svg>
