<svg width="20" height="17" viewBox="0 0 20 17" fill="none" xmlns="http://www.w3.org/2000/svg">
<path d="M7.53026 10.5133C7.5446 10.3166 7.63585 10.1335 7.78425 10.0036L9.62282 8.394L6.59748 10.2396C6.41503 10.3509 6.19376 10.3791 5.98923 10.3171L2.36117 9.21686L7.53026 10.5133ZM7.53026 10.5133L7.26558 14.1429C7.25043 14.3507 7.32243 14.5555 7.46432 14.7081C7.60621 14.8607 7.80521 14.9475 8.0136 14.9475C8.31887 14.9475 8.58321 14.8807 8.81895 14.7482C9.01875 14.6359 9.17055 14.4884 9.25962 14.4018C9.26306 14.3985 9.2664 14.3952 9.26965 14.3921M7.53026 10.5133L9.26965 14.3921M9.26965 14.3921L10.5912 13.1606L13.7713 15.4312C13.7962 15.449 13.8221 15.4652 13.849 15.4798C14.274 15.7107 14.8248 15.8705 15.3608 15.6338C15.9 15.3957 16.155 14.8759 16.2694 14.3863L16.2695 14.3864L16.2718 14.376L18.6807 3.37057C18.683 3.36191 18.685 3.35321 18.687 3.34446C18.8236 2.72352 18.7544 2.06521 18.2854 1.62516C17.8146 1.1834 17.1782 1.1836 16.6806 1.36415L16.6806 1.36412L16.6742 1.36652L2.48052 6.66464L2.48052 6.66463L2.47734 6.66584C2.18662 6.77586 1.92055 6.91535 1.71031 7.09492C1.50543 7.26991 1.28784 7.54224 1.25425 7.91355C1.21824 8.31164 1.40943 8.62683 1.62941 8.82732C1.83851 9.01791 2.10224 9.13854 2.36048 9.21665L9.26965 14.3921Z" stroke="black" stroke-width="1.5" stroke-linejoin="round"/>
</svg>
