<svg width="174" height="142" viewBox="0 0 174 142" fill="none" xmlns="http://www.w3.org/2000/svg">
<path fill-rule="evenodd" clip-rule="evenodd" d="M59.7509 128.143C59.7509 135.419 53.8531 141.317 46.5777 141.317C39.3024 141.317 33.4045 135.419 33.4045 128.143C33.4045 120.868 39.3024 114.97 46.5777 114.97C53.8531 114.97 59.7509 120.868 59.7509 128.143ZM51.2824 128.143C51.2824 130.742 49.176 132.848 46.5777 132.848C43.9794 132.848 41.873 130.742 41.873 128.143C41.873 125.545 43.9794 123.439 46.5777 123.439C49.176 123.439 51.2824 125.545 51.2824 128.143Z" fill="#F9F9F9"/>
<path fill-rule="evenodd" clip-rule="evenodd" d="M102.094 128.143C102.094 135.419 96.1961 141.317 88.9207 141.317C81.6454 141.317 75.7476 135.419 75.7476 128.143C75.7476 120.868 81.6454 114.97 88.9207 114.97C96.1961 114.97 102.094 120.868 102.094 128.143ZM93.6254 128.143C93.6254 130.742 91.5191 132.848 88.9207 132.848C86.3224 132.848 84.216 130.742 84.216 128.143C84.216 125.545 86.3224 123.439 88.9207 123.439C91.5191 123.439 93.6254 125.545 93.6254 128.143Z" fill="#F9F9F9"/>
<path fill-rule="evenodd" clip-rule="evenodd" d="M0 34.0497C0 31.7112 1.89573 29.8154 4.23423 29.8154H23.053C25.0712 29.8154 26.8089 31.2398 27.2049 33.2187L31.232 53.3389H107.738C109 53.3389 110.196 53.9018 111 54.8741C111.805 55.8464 112.133 57.1268 111.897 58.3664L104.363 97.8706C103.74 101.011 102.031 103.833 99.5365 105.84C97.0538 107.839 93.95 108.905 90.7641 108.854H45.1077C41.9218 108.905 38.818 107.839 36.3353 105.84C33.8418 103.833 32.1334 101.013 31.5091 97.8735C31.5089 97.8725 31.5093 97.8745 31.5091 97.8735L23.6473 58.5936C23.6171 58.4718 23.5923 58.3478 23.5729 58.2221L19.5823 38.2839H4.23423C1.89573 38.2839 0 36.3882 0 34.0497ZM32.9269 61.8074L39.8148 96.2207C40.0514 97.4121 40.6995 98.4822 41.6456 99.2438C42.5917 100.005 43.7756 100.41 44.9899 100.387L45.071 100.386H90.8008L90.8819 100.387C92.0962 100.41 93.2801 100.005 94.2262 99.2438C95.1688 98.485 95.8156 97.42 96.0544 96.234C96.0553 96.2296 96.0562 96.2252 96.0571 96.2207L102.62 61.8074H32.9269Z" fill="#F9F9F9"/>
<path fill-rule="evenodd" clip-rule="evenodd" d="M145.502 46.1371C145.502 49.5508 148.27 52.3182 151.683 52.3182C155.097 52.3182 157.864 49.5508 157.864 46.1371C157.864 42.7234 155.097 39.9561 151.683 39.9561C148.27 39.9561 145.502 42.7234 145.502 46.1371ZM149.476 46.1371C149.476 47.3563 150.464 48.3446 151.683 48.3446C152.903 48.3446 153.891 47.3563 153.891 46.1371C153.891 44.9179 152.903 43.9296 151.683 43.9296C150.464 43.9296 149.476 44.9179 149.476 46.1371Z" fill="#67CC8C"/>
<path fill-rule="evenodd" clip-rule="evenodd" d="M125.636 46.1371C125.636 49.5508 128.403 52.3182 131.817 52.3182C135.231 52.3182 137.998 49.5508 137.998 46.1371C137.998 42.7234 135.231 39.9561 131.817 39.9561C128.403 39.9561 125.636 42.7234 125.636 46.1371ZM129.609 46.1371C129.609 47.3563 130.598 48.3446 131.817 48.3446C133.036 48.3446 134.024 47.3563 134.024 46.1371C134.024 44.9179 133.036 43.9296 131.817 43.9296C130.598 43.9296 129.609 44.9179 129.609 46.1371Z" fill="#67CC8C"/>
<path fill-rule="evenodd" clip-rule="evenodd" d="M173.539 1.98677C173.539 0.889506 172.65 0 171.552 0H162.722C161.775 0 160.96 0.668319 160.774 1.59685L158.885 11.0376H122.987C122.395 11.0376 121.834 11.3017 121.456 11.7579C121.079 12.2141 120.924 12.8149 121.035 13.3965L124.57 31.9325C124.863 33.4062 125.665 34.73 126.835 35.6721C128 36.6099 129.456 37.1101 130.951 37.0863H152.374C153.869 37.1101 155.325 36.6099 156.49 35.6721C157.66 34.7303 158.462 33.407 158.754 31.9339C158.755 31.9334 158.754 31.9343 158.754 31.9339L162.443 13.5032C162.458 13.446 162.469 13.3878 162.478 13.3288L164.351 3.97353H171.552C172.65 3.97353 173.539 3.08403 173.539 1.98677ZM158.089 15.0111L154.857 31.1584C154.746 31.7174 154.442 32.2195 153.998 32.5769C153.554 32.9342 152.999 33.1241 152.429 33.1132L152.391 33.1128H130.934L130.896 33.1132C130.326 33.1241 129.771 32.9342 129.327 32.5769C128.884 32.2208 128.581 31.7211 128.469 31.1646C128.468 31.1625 128.468 31.1605 128.468 31.1584L125.388 15.0111H158.089Z" fill="#67CC8C"/>
</svg>
