<svg width="295" height="220" viewBox="0 0 295 220" fill="none" xmlns="http://www.w3.org/2000/svg">
<path d="M160.417 125.253V132C160.408 147.814 155.317 163.201 145.902 175.867C136.487 188.532 123.254 197.798 108.175 202.282C93.0965 206.766 76.9807 206.227 62.2312 200.747C47.4817 195.267 34.8888 185.138 26.3306 171.872C17.7724 158.606 13.7075 142.912 14.742 127.133C15.7766 111.353 21.8553 96.3331 32.0714 84.3119C42.2876 72.2907 56.0939 63.9128 71.4312 60.4277C86.7685 56.9427 102.815 58.5371 117.178 64.9733" stroke="#F9F9F9" stroke-width="12" stroke-linecap="round" stroke-linejoin="round"/>
<path d="M160.417 73.3333L87.5 146.74L65.625 124.74" stroke="#F9F9F9" stroke-width="12" stroke-linecap="round" stroke-linejoin="round"/>
<path d="M287.665 40.6267V44C287.661 51.9069 285.101 59.6005 280.366 65.9334C275.632 72.2662 268.977 76.8991 261.395 79.141C253.813 81.3828 245.709 81.1136 238.292 78.3735C230.875 75.6333 224.542 70.569 220.239 63.9359C215.935 57.3028 213.891 49.4562 214.412 41.5665C214.932 33.6767 217.988 26.1665 223.126 20.1559C228.263 14.1453 235.206 9.9564 242.918 8.21387C250.631 6.47134 258.7 7.26857 265.922 10.4867" stroke="#67CC8C" stroke-width="7" stroke-linecap="round" stroke-linejoin="round"/>
<path d="M287.667 14.6667L251 51.37L240 40.37" stroke="#67CC8C" stroke-width="7" stroke-linecap="round" stroke-linejoin="round"/>
</svg>
