<svg width="207" height="152" viewBox="0 0 207 152" fill="none" xmlns="http://www.w3.org/2000/svg">
<path d="M64.1667 122.833C89.94 122.833 110.833 101.94 110.833 76.1667C110.833 50.3934 89.94 29.5 64.1667 29.5C38.3934 29.5 17.5 50.3934 17.5 76.1667C17.5 101.94 38.3934 122.833 64.1667 122.833Z" stroke="#DFDFDF" stroke-width="8" stroke-linecap="round" stroke-linejoin="round"/>
<path d="M122.5 134.5L97.1245 109.125" stroke="#DFDFDF" stroke-width="8" stroke-linecap="round" stroke-linejoin="round"/>
<path d="M184 44C172.402 44 163 34.598 163 23C163 11.402 172.402 2 184 2C195.598 2 205 11.402 205 23C205 34.598 195.598 44 184 44Z" stroke="#67CC8C" stroke-width="4" stroke-linecap="round" stroke-linejoin="round"/>
<path d="M158 49L169 38" stroke="#67CC8C" stroke-width="4" stroke-linecap="round" stroke-linejoin="round"/>
</svg>
