<svg width="407" height="325" viewBox="0 0 407 325" fill="none" xmlns="http://www.w3.org/2000/svg">
<path d="M86.4 225.4L87.4 263C87.4 266.067 86.6667 268.533 85.2 270.4C83.8667 272.133 82 273 79.6 273C77.2 273 75.2667 272.133 73.8 270.4C72.4667 268.533 71.8 266.067 71.8 263L72.6 225L57.8 224.8L14 225.6C11.2 225.6 9 224.867 7.4 223.4C5.8 221.8 5 220.133 5 218.4C5 216.667 5.06667 215.333 5.2 214.4C5.46667 213.333 6 212.067 6.8 210.6C7.73333 209.133 8.6 207.733 9.4 206.4C10.3333 205.067 11.8667 203.067 14 200.4C16.1333 197.6 18.2 195 20.2 192.6C22.3333 190.067 28.8 181.933 39.6 168.2L63 138.4C67.8 132.133 72.4667 129 77 129C83.9333 129 87.4 133 87.4 141C87.4 141.8 87.3333 145.2 87.2 151.2C86.6667 165.2 86.4 185.333 86.4 211.6L97.8 211C100.733 211 103.133 211.667 105 213C106.867 214.333 107.8 216.133 107.8 218.4C107.8 220.667 106.867 222.467 105 223.8C103.133 225.133 101.267 225.8 99.4 225.8C97.6667 225.8 93.3333 225.667 86.4 225.4ZM23 212H72.8C73.0667 202.267 73.2 190.333 73.2 176.2L72.8 148.2C66.9333 155 58.2667 165.733 46.8 180.4C35.4667 195.067 27.5333 205.6 23 212ZM220.025 149.6C229.892 164 234.825 181.133 234.825 201C234.825 220.867 229.892 238 220.025 252.4C210.158 266.8 197.292 274 181.425 274C165.558 274 152.692 266.8 142.825 252.4C132.958 238 128.025 220.867 128.025 201C128.025 181.133 132.958 164 142.825 149.6C152.692 135.2 165.558 128 181.425 128C197.292 128 210.158 135.2 220.025 149.6ZM209.225 243C216.692 231 220.425 217 220.425 201C220.425 185 216.692 171.067 209.225 159.2C201.892 147.2 192.625 141.2 181.425 141.2C170.225 141.2 160.892 147.2 153.425 159.2C146.092 171.067 142.425 185 142.425 201C142.425 217 146.092 231 153.425 243C160.892 254.867 170.225 260.8 181.425 260.8C192.625 260.8 201.892 254.867 209.225 243ZM333.666 225.4L334.666 263C334.666 266.067 333.932 268.533 332.466 270.4C331.132 272.133 329.266 273 326.866 273C324.466 273 322.532 272.133 321.066 270.4C319.732 268.533 319.066 266.067 319.066 263L319.866 225L305.066 224.8L261.266 225.6C258.466 225.6 256.266 224.867 254.666 223.4C253.066 221.8 252.266 220.133 252.266 218.4C252.266 216.667 252.332 215.333 252.466 214.4C252.732 213.333 253.266 212.067 254.066 210.6C254.999 209.133 255.866 207.733 256.666 206.4C257.599 205.067 259.132 203.067 261.266 200.4C263.399 197.6 265.466 195 267.466 192.6C269.599 190.067 276.066 181.933 286.866 168.2L310.266 138.4C315.066 132.133 319.732 129 324.266 129C331.199 129 334.666 133 334.666 141C334.666 141.8 334.599 145.2 334.466 151.2C333.932 165.2 333.666 185.333 333.666 211.6L345.066 211C347.999 211 350.399 211.667 352.266 213C354.132 214.333 355.066 216.133 355.066 218.4C355.066 220.667 354.132 222.467 352.266 223.8C350.399 225.133 348.532 225.8 346.666 225.8C344.932 225.8 340.599 225.667 333.666 225.4ZM270.266 212H320.066C320.332 202.267 320.466 190.333 320.466 176.2L320.066 148.2C314.199 155 305.532 165.733 294.066 180.4C282.732 195.067 274.799 205.6 270.266 212Z" fill="#F9F9F9"/>
<path d="M268.2 76.2L268.7 95C268.7 96.5333 268.333 97.7667 267.6 98.7C266.933 99.5667 266 100 264.8 100C263.6 100 262.633 99.5667 261.9 98.7C261.233 97.7667 260.9 96.5333 260.9 95L261.3 76L253.9 75.9L232 76.3C230.6 76.3 229.5 75.9333 228.7 75.2C227.9 74.4 227.5 73.5667 227.5 72.7C227.5 71.8333 227.533 71.1667 227.6 70.7C227.733 70.1667 228 69.5333 228.4 68.8C228.867 68.0667 229.3 67.3667 229.7 66.7C230.167 66.0333 230.933 65.0333 232 63.7C233.067 62.3 234.1 61 235.1 59.8C236.167 58.5333 239.4 54.4667 244.8 47.6L256.5 32.7C258.9 29.5667 261.233 28 263.5 28C266.967 28 268.7 30 268.7 34C268.7 34.4 268.667 36.1 268.6 39.1C268.333 46.1 268.2 56.1667 268.2 69.3L273.9 69C275.367 69 276.567 69.3333 277.5 70C278.433 70.6667 278.9 71.5667 278.9 72.7C278.9 73.8333 278.433 74.7333 277.5 75.4C276.567 76.0667 275.633 76.4 274.7 76.4C273.833 76.4 271.667 76.3333 268.2 76.2ZM236.5 69.5H261.4C261.533 64.6333 261.6 58.6667 261.6 51.6L261.4 37.6C258.467 41 254.133 46.3667 248.4 53.7C242.733 61.0333 238.767 66.3 236.5 69.5ZM335.013 38.3C339.946 45.5 342.413 54.0667 342.413 64C342.413 73.9333 339.946 82.5 335.013 89.7C330.079 96.9 323.646 100.5 315.713 100.5C307.779 100.5 301.346 96.9 296.413 89.7C291.479 82.5 289.013 73.9333 289.013 64C289.013 54.0667 291.479 45.5 296.413 38.3C301.346 31.1 307.779 27.5 315.713 27.5C323.646 27.5 330.079 31.1 335.013 38.3ZM329.613 85C333.346 79 335.213 72 335.213 64C335.213 56 333.346 49.0333 329.613 43.1C325.946 37.1 321.313 34.1 315.713 34.1C310.113 34.1 305.446 37.1 301.713 43.1C298.046 49.0333 296.213 56 296.213 64C296.213 72 298.046 79 301.713 85C305.446 90.9333 310.113 93.9 315.713 93.9C321.313 93.9 325.946 90.9333 329.613 85ZM391.833 76.2L392.333 95C392.333 96.5333 391.966 97.7667 391.233 98.7C390.566 99.5667 389.633 100 388.433 100C387.233 100 386.266 99.5667 385.533 98.7C384.866 97.7667 384.533 96.5333 384.533 95L384.933 76L377.533 75.9L355.633 76.3C354.233 76.3 353.133 75.9333 352.333 75.2C351.533 74.4 351.133 73.5667 351.133 72.7C351.133 71.8333 351.166 71.1667 351.233 70.7C351.366 70.1667 351.633 69.5333 352.033 68.8C352.499 68.0667 352.933 67.3667 353.333 66.7C353.799 66.0333 354.566 65.0333 355.633 63.7C356.699 62.3 357.733 61 358.733 59.8C359.799 58.5333 363.033 54.4667 368.433 47.6L380.133 32.7C382.533 29.5667 384.866 28 387.133 28C390.599 28 392.333 30 392.333 34C392.333 34.4 392.299 36.1 392.233 39.1C391.966 46.1 391.833 56.1667 391.833 69.3L397.533 69C398.999 69 400.199 69.3333 401.133 70C402.066 70.6667 402.533 71.5667 402.533 72.7C402.533 73.8333 402.066 74.7333 401.133 75.4C400.199 76.0667 399.266 76.4 398.333 76.4C397.466 76.4 395.299 76.3333 391.833 76.2ZM360.133 69.5H385.033C385.166 64.6333 385.233 58.6667 385.233 51.6L385.033 37.6C382.099 41 377.766 46.3667 372.033 53.7C366.366 61.0333 362.399 66.3 360.133 69.5Z" fill="#67CC8C"/>
</svg>
