<svg width="162" height="134" viewBox="0 0 162 134" fill="none" xmlns="http://www.w3.org/2000/svg">
<path d="M93.5975 53.3378C91.2518 51.0115 88.4667 49.1661 85.4013 47.9071C82.3359 46.648 79.0503 46 75.7322 46C72.4141 46 69.1285 46.648 66.0631 47.9071C62.9978 49.1661 60.2127 51.0115 57.8669 53.3378L52.9988 58.1634L48.1306 53.3378C43.3924 48.641 36.9661 46.0024 30.2653 46.0024C23.5645 46.0024 17.1382 48.641 12.4 53.3378C7.66187 58.0346 5 64.4047 5 71.0469C5 77.6892 7.66187 84.0593 12.4 88.7561L17.2682 93.5817L52.9988 129L88.7293 93.5817L93.5975 88.7561C95.9443 86.4309 97.806 83.6701 99.0761 80.6315C100.346 77.5929 101 74.3361 101 71.0469C101 67.7578 100.346 64.501 99.0761 61.4624C97.806 58.4238 95.9443 55.663 93.5975 53.3378Z" stroke="#F9F9F9" stroke-width="10" stroke-linecap="round" stroke-linejoin="round"/>
<path d="M155.761 6.18266C154.735 5.17367 153.517 4.37326 152.176 3.82717C150.834 3.28107 149.397 3 147.945 3C146.494 3 145.056 3.28107 143.715 3.82717C142.374 4.37326 141.156 5.17367 140.129 6.18266L137.999 8.2757L135.87 6.18266C133.797 4.14551 130.985 3.00106 128.054 3.00106C125.122 3.00106 122.31 4.14551 120.238 6.18266C118.165 8.21981 117 10.9828 117 13.8637C117 16.7447 118.165 19.5077 120.238 21.5448L122.367 23.6379L137.999 39L153.632 23.6379L155.761 21.5448C156.788 20.5363 157.603 19.3388 158.158 18.0209C158.714 16.703 159 15.2903 159 13.8637C159 12.4371 158.714 11.0245 158.158 9.70657C157.603 8.38862 156.788 7.19118 155.761 6.18266Z" stroke="#67CC8C" stroke-width="5" stroke-linecap="round" stroke-linejoin="round"/>
</svg>
