<svg width="32" height="32" viewBox="0 0 32 32" fill="none" xmlns="http://www.w3.org/2000/svg">
<path d="M12.9144 12.048C12.5731 11.9093 12.1851 12.0773 12.0477 12.4187L9.5477 18.6667H9.33301V12.6667C9.33301 12.2987 9.03432 12 8.66632 12H5.9997C5.6317 12 5.33301 12.2987 5.33301 12.6667C5.33301 13.0347 5.6317 13.3333 5.9997 13.3333H7.9997V19.3333C7.9997 19.7013 8.29838 20 8.66638 20H9.9997C10.2717 20 10.5184 19.8333 10.6184 19.5813L13.2851 12.9146C13.4224 12.5733 13.257 12.1853 12.9144 12.048Z" fill="#67CC8C"/>
<path d="M15.4623 12.0133C15.1183 11.9413 14.7516 12.1733 14.6783 12.536L13.345 19.2027C13.273 19.564 13.5077 19.9147 13.869 19.9867C13.913 19.996 13.957 20 14.001 20C14.3117 20 14.589 19.7813 14.653 19.464L15.9863 12.7973C16.0583 12.436 15.8236 12.0853 15.4623 12.0133Z" fill="#67CC8C"/>
<path d="M20.8315 12.1427C20.7235 12.1134 18.1582 11.484 17.1688 13.0894C16.8541 13.5974 16.7581 14.1107 16.8808 14.6134C17.1141 15.5734 18.1088 16.1654 18.5861 16.4507C19.3541 16.9067 19.7608 17.368 19.6754 17.6814C19.6301 17.8427 19.4807 18.2427 19.0421 18.4761C18.5421 18.7428 17.7941 18.7188 16.8808 18.4094C16.5315 18.2947 16.1541 18.4774 16.0341 18.8267C15.9168 19.176 16.1034 19.5547 16.4514 19.6734C17.0861 19.8894 17.6727 19.9974 18.2034 19.9974C18.7501 19.9974 19.2394 19.8841 19.6701 19.6534C20.3021 19.3174 20.7728 18.7267 20.9634 18.0321C21.1461 17.3574 21.0021 16.3361 19.2687 15.3054C18.974 15.1294 18.278 14.7147 18.1767 14.2974C18.1647 14.2441 18.1247 14.0814 18.3047 13.7907C18.6967 13.1507 20.058 13.324 20.5047 13.4347C20.866 13.5267 21.2234 13.308 21.3127 12.9507C21.4035 12.5947 21.1888 12.2333 20.8315 12.1427Z" fill="#67CC8C"/>
<path d="M26 12H24.6667C24.3947 12 24.148 12.1667 24.048 12.4187L21.3813 19.0854C21.244 19.4267 21.4093 19.8147 21.752 19.9521C21.8333 19.9854 21.9173 20.0001 22 20.0001C22.264 20.0001 22.5147 19.8414 22.6187 19.5814L25.1187 13.3334H25.3334V19.3334C25.3334 19.7014 25.6321 20.0001 26.0001 20.0001C26.3681 20.0001 26.6668 19.7014 26.6668 19.3334V12.6667C26.6667 12.2987 26.368 12 26 12Z" fill="#67CC8C"/>
<path d="M26.0004 16H23.3337C22.9657 16 22.667 16.2987 22.667 16.6667C22.667 17.0347 22.9657 17.3334 23.3337 17.3334H26.0004C26.3684 17.3334 26.6671 17.0347 26.6671 16.6667C26.6671 16.2987 26.3684 16 26.0004 16Z" fill="#67CC8C"/>
<path d="M27.3333 5.33331H4.66669C2.09331 5.33331 0 7.42669 0 10V22C0 24.5733 2.09331 26.6667 4.66669 26.6667H27.3334C29.9067 26.6667 32 24.5733 32 22V10C32 7.42669 29.9067 5.33331 27.3333 5.33331ZM30.6667 22C30.6667 23.8373 29.172 25.3333 27.3334 25.3333H4.66669C2.828 25.3333 1.33337 23.8373 1.33337 22V10C1.33337 8.16269 2.82806 6.66669 4.66669 6.66669H27.3334C29.1721 6.66669 30.6667 8.16269 30.6667 10V22Z" fill="#010101"/>
</svg>
