<svg width="20" height="20" viewBox="0 0 20 20" fill="none" xmlns="http://www.w3.org/2000/svg">
<path d="M10.0023 1H9.99775C5.03538 1 1 5.0365 1 10C1 11.9688 1.6345 13.7935 2.71338 15.2751L1.59175 18.6186L5.05113 17.5128C6.47425 18.4555 8.17188 19 10.0023 19C14.9646 19 19 14.9624 19 10C19 5.03762 14.9646 1 10.0023 1ZM15.2391 13.7091C15.022 14.3223 14.1603 14.8307 13.4729 14.9792C13.0026 15.0794 12.3884 15.1593 10.3206 14.302C7.67575 13.2063 5.9725 10.5186 5.83975 10.3443C5.71263 10.1699 4.771 8.92113 4.771 7.62963C4.771 6.33813 5.42688 5.70925 5.69125 5.43925C5.90838 5.21763 6.26725 5.11637 6.6115 5.11637C6.72288 5.11637 6.823 5.122 6.913 5.1265C7.17738 5.13775 7.31013 5.1535 7.4845 5.57088C7.70163 6.094 8.23038 7.3855 8.29338 7.51825C8.3575 7.651 8.42163 7.831 8.33163 8.00538C8.24725 8.18538 8.173 8.26525 8.04025 8.41825C7.9075 8.57125 7.7815 8.68825 7.64875 8.8525C7.52725 8.99538 7.39 9.14838 7.543 9.41275C7.696 9.6715 8.22475 10.5344 9.00325 11.2274C10.0079 12.1218 10.8224 12.4075 11.1138 12.529C11.3309 12.619 11.5896 12.5976 11.7483 12.4289C11.9496 12.2118 12.1983 11.8518 12.4514 11.4974C12.6314 11.2431 12.8586 11.2116 13.0971 11.3016C13.3401 11.386 14.626 12.0216 14.8904 12.1533C15.1548 12.286 15.3291 12.349 15.3933 12.4604C15.4563 12.5718 15.4563 13.0949 15.2391 13.7091Z" stroke="black" stroke-width="1.5" stroke-linejoin="round"/>
</svg>
