<svg width="24" height="24" viewBox="0 0 24 24" fill="none" xmlns="http://www.w3.org/2000/svg">
<path d="M23.5055 5.66009C23.229 4.61992 22.4183 3.79995 21.3903 3.51987C19.5122 3 11.9997 3 11.9997 3C11.9997 3 4.48756 3 2.60948 3.50016C1.60122 3.77995 0.770802 4.62006 0.494239 5.66009C0 7.55995 0 11.5 0 11.5C0 11.5 0 15.4599 0.494239 17.3399C0.771095 18.3799 1.58145 19.1999 2.60962 19.48C4.50733 20 12 20 12 20C12 20 19.5122 20 21.3903 19.4998C22.4185 19.2199 23.229 18.3999 23.5058 17.3599C23.9999 15.4599 23.9999 11.52 23.9999 11.52C23.9999 11.52 24.0197 7.55995 23.5055 5.66009ZM9.60793 15.14V7.86004L15.8549 11.5L9.60793 15.14Z" fill="#909090"/>
</svg>
