<svg width="52" height="22" viewBox="0 0 52 22" fill="none" xmlns="http://www.w3.org/2000/svg">
<path d="M10.2031 19.6364H11.4048L11.4112 18.1982C14.1151 18 15.6619 16.4531 15.6619 14.3821C15.6619 12.0234 13.5589 11.1094 11.897 10.7003L11.4304 10.5788L11.4432 6.47514C12.6385 6.63494 13.4567 7.29972 13.5781 8.34801H15.483C15.4318 6.39844 13.821 4.94105 11.4496 4.74929L11.456 3.27273H10.2543L10.2479 4.76207C7.95312 4.99219 6.27202 6.42401 6.27202 8.48864C6.27202 10.3104 7.57599 11.3778 9.67898 11.9467L10.2287 12.0938L10.2159 16.4467C8.96946 16.2933 8.00426 15.6158 7.90199 14.3821H5.92045C6.0419 16.5874 7.63352 18.0064 10.2095 18.1982L10.2031 19.6364ZM11.4176 16.4467L11.4304 12.4261C12.728 12.7841 13.706 13.2571 13.706 14.3629C13.706 15.4815 12.7727 16.2678 11.4176 16.4467ZM10.2351 10.2592C9.28267 9.97798 8.23438 9.47301 8.24077 8.37358C8.24077 7.41477 9.00142 6.6669 10.2415 6.48153L10.2351 10.2592ZM22.8098 4.90909H20.8858L17.6195 7.04403V8.93608L20.7516 6.89062H20.8283V18H22.8098V4.90909ZM26.351 18H34.9675V16.3061H29.074V16.2102L31.6756 13.4872C34.0726 11.0646 34.7566 9.90767 34.7566 8.44389C34.7566 6.34091 33.0435 4.73011 30.5762 4.73011C28.128 4.73011 26.3382 6.31534 26.3382 8.70597H28.2239C28.2175 7.29972 29.1252 6.37926 30.5378 6.37926C31.8674 6.37926 32.8773 7.19744 32.8773 8.50142C32.8773 9.65838 32.187 10.4893 30.7807 11.9787L26.351 16.5682V18ZM37.3901 18H46.0066V16.3061H40.1131V16.2102L42.7147 13.4872C45.1117 11.0646 45.7956 9.90767 45.7956 8.44389C45.7956 6.34091 44.0826 4.73011 41.6152 4.73011C39.1671 4.73011 37.3773 6.31534 37.3773 8.70597H39.263C39.2566 7.29972 40.1642 6.37926 41.5769 6.37926C42.9064 6.37926 43.9164 7.19744 43.9164 8.50142C43.9164 9.65838 43.226 10.4893 41.8198 11.9787L37.3901 16.5682V18Z" fill="#DC776D"/>
<path d="M0 11H52" stroke="#DC776D" stroke-width="2"/>
</svg>
