<svg width="24" height="24" viewBox="0 0 24 24" fill="none" xmlns="http://www.w3.org/2000/svg">
<path d="M10 22.75C10.9665 22.75 11.75 21.9665 11.75 21C11.75 20.0335 10.9665 19.25 10 19.25C9.0335 19.25 8.25 20.0335 8.25 21C8.25 21.9665 9.0335 22.75 10 22.75Z" stroke="#010101" stroke-width="1.5" stroke-linecap="round" stroke-linejoin="round"/>
<path d="M19 22.75C19.9665 22.75 20.75 21.9665 20.75 21C20.75 20.0335 19.9665 19.25 19 19.25C18.0335 19.25 17.25 20.0335 17.25 21C17.25 21.9665 18.0335 22.75 19 22.75Z" stroke="#010101" stroke-width="1.5" stroke-linecap="round" stroke-linejoin="round"/>
<path d="M1 1H5L7.68 14.39C7.77144 14.8504 8.02191 15.264 8.38755 15.5583C8.75318 15.8526 9.2107 16.009 9.68 16H19.4C19.8693 16.009 20.3268 15.8526 20.6925 15.5583C21.0581 15.264 21.3086 14.8504 21.4 14.39L23 6H6" stroke="#010101" stroke-width="1.5" stroke-linecap="round" stroke-linejoin="round"/>
</svg>
